<svg width="413" height="50" viewBox="0 0 413 50" fill="none" xmlns="http://www.w3.org/2000/svg">
<rect width="413" height="50" rx="7" fill="#F0E7E7"/>
<path d="M29.9204 29.05H44.9204V14.05H29.9204V29.05ZM44.9204 29.05H59.9204V14.05H44.9204V29.05ZM59.9204 29.05H74.9204V14.05H59.9204V29.05ZM83.1896 17.53C84.2896 17.53 85.2546 17.745 86.0846 18.175C86.9246 18.605 87.5696 19.22 88.0196 20.02C88.4796 20.81 88.7096 21.73 88.7096 22.78C88.7096 23.83 88.4796 24.75 88.0196 25.54C87.5696 26.32 86.9246 26.925 86.0846 27.355C85.2546 27.785 84.2896 28 83.1896 28H79.5296V17.53H83.1896ZM83.1146 26.215C84.2146 26.215 85.0646 25.915 85.6646 25.315C86.2646 24.715 86.5646 23.87 86.5646 22.78C86.5646 21.69 86.2646 20.84 85.6646 20.23C85.0646 19.61 84.2146 19.3 83.1146 19.3H81.6296V26.215H83.1146ZM93.9716 28.135C93.1716 28.135 92.4516 27.96 91.8116 27.61C91.1716 27.25 90.6666 26.745 90.2966 26.095C89.9366 25.445 89.7566 24.695 89.7566 23.845C89.7566 22.995 89.9416 22.245 90.3116 21.595C90.6916 20.945 91.2066 20.445 91.8566 20.095C92.5066 19.735 93.2316 19.555 94.0316 19.555C94.8316 19.555 95.5566 19.735 96.2066 20.095C96.8566 20.445 97.3666 20.945 97.7366 21.595C98.1166 22.245 98.3066 22.995 98.3066 23.845C98.3066 24.695 98.1116 25.445 97.7216 26.095C97.3416 26.745 96.8216 27.25 96.1616 27.61C95.5116 27.96 94.7816 28.135 93.9716 28.135ZM93.9716 26.305C94.3516 26.305 94.7066 26.215 95.0366 26.035C95.3766 25.845 95.6466 25.565 95.8466 25.195C96.0466 24.825 96.1466 24.375 96.1466 23.845C96.1466 23.055 95.9366 22.45 95.5166 22.03C95.1066 21.6 94.6016 21.385 94.0016 21.385C93.4016 21.385 92.8966 21.6 92.4866 22.03C92.0866 22.45 91.8866 23.055 91.8866 23.845C91.8866 24.635 92.0816 25.245 92.4716 25.675C92.8716 26.095 93.3716 26.305 93.9716 26.305ZM111.367 19.69L108.937 28H106.672L105.157 22.195L103.642 28H101.362L98.917 19.69H101.047L102.517 26.02L104.107 19.69H106.327L107.887 26.005L109.357 19.69H111.367ZM117.108 19.57C118.098 19.57 118.898 19.885 119.508 20.515C120.118 21.135 120.423 22.005 120.423 23.125V28H118.323V23.41C118.323 22.75 118.158 22.245 117.828 21.895C117.498 21.535 117.048 21.355 116.478 21.355C115.898 21.355 115.438 21.535 115.098 21.895C114.768 22.245 114.603 22.75 114.603 23.41V28H112.503V19.69H114.603V20.725C114.883 20.365 115.238 20.085 115.668 19.885C116.108 19.675 116.588 19.57 117.108 19.57ZM124.52 16.9V28H122.42V16.9H124.52ZM130.285 28.135C129.485 28.135 128.765 27.96 128.125 27.61C127.485 27.25 126.98 26.745 126.61 26.095C126.25 25.445 126.07 24.695 126.07 23.845C126.07 22.995 126.255 22.245 126.625 21.595C127.005 20.945 127.52 20.445 128.17 20.095C128.82 19.735 129.545 19.555 130.345 19.555C131.145 19.555 131.87 19.735 132.52 20.095C133.17 20.445 133.68 20.945 134.05 21.595C134.43 22.245 134.62 22.995 134.62 23.845C134.62 24.695 134.425 25.445 134.035 26.095C133.655 26.745 133.135 27.25 132.475 27.61C131.825 27.96 131.095 28.135 130.285 28.135ZM130.285 26.305C130.665 26.305 131.02 26.215 131.35 26.035C131.69 25.845 131.96 25.565 132.16 25.195C132.36 24.825 132.46 24.375 132.46 23.845C132.46 23.055 132.25 22.45 131.83 22.03C131.42 21.6 130.915 21.385 130.315 21.385C129.715 21.385 129.21 21.6 128.8 22.03C128.4 22.45 128.2 23.055 128.2 23.845C128.2 24.635 128.395 25.245 128.785 25.675C129.185 26.095 129.685 26.305 130.285 26.305ZM135.62 23.815C135.62 22.975 135.785 22.23 136.115 21.58C136.455 20.93 136.91 20.43 137.48 20.08C138.06 19.73 138.705 19.555 139.415 19.555C140.035 19.555 140.575 19.68 141.035 19.93C141.505 20.18 141.88 20.495 142.16 20.875V19.69H144.275V28H142.16V26.785C141.89 27.175 141.515 27.5 141.035 27.76C140.565 28.01 140.02 28.135 139.4 28.135C138.7 28.135 138.06 27.955 137.48 27.595C136.91 27.235 136.455 26.73 136.115 26.08C135.785 25.42 135.62 24.665 135.62 23.815ZM142.16 23.845C142.16 23.335 142.06 22.9 141.86 22.54C141.66 22.17 141.39 21.89 141.05 21.7C140.71 21.5 140.345 21.4 139.955 21.4C139.565 21.4 139.205 21.495 138.875 21.685C138.545 21.875 138.275 22.155 138.065 22.525C137.865 22.885 137.765 23.315 137.765 23.815C137.765 24.315 137.865 24.755 138.065 25.135C138.275 25.505 138.545 25.79 138.875 25.99C139.215 26.19 139.575 26.29 139.955 26.29C140.345 26.29 140.71 26.195 141.05 26.005C141.39 25.805 141.66 25.525 141.86 25.165C142.06 24.795 142.16 24.355 142.16 23.845ZM145.787 23.815C145.787 22.975 145.952 22.23 146.282 21.58C146.622 20.93 147.082 20.43 147.662 20.08C148.242 19.73 148.887 19.555 149.597 19.555C150.137 19.555 150.652 19.675 151.142 19.915C151.632 20.145 152.022 20.455 152.312 20.845V16.9H154.442V28H152.312V26.77C152.052 27.18 151.687 27.51 151.217 27.76C150.747 28.01 150.202 28.135 149.582 28.135C148.882 28.135 148.242 27.955 147.662 27.595C147.082 27.235 146.622 26.73 146.282 26.08C145.952 25.42 145.787 24.665 145.787 23.815ZM152.327 23.845C152.327 23.335 152.227 22.9 152.027 22.54C151.827 22.17 151.557 21.89 151.217 21.7C150.877 21.5 150.512 21.4 150.122 21.4C149.732 21.4 149.372 21.495 149.042 21.685C148.712 21.875 148.442 22.155 148.232 22.525C148.032 22.885 147.932 23.315 147.932 23.815C147.932 24.315 148.032 24.755 148.232 25.135C148.442 25.505 148.712 25.79 149.042 25.99C149.382 26.19 149.742 26.29 150.122 26.29C150.512 26.29 150.877 26.195 151.217 26.005C151.557 25.805 151.827 25.525 152.027 25.165C152.227 24.795 152.327 24.355 152.327 23.845ZM174.062 17.53L171.137 28H168.662L166.697 20.545L164.642 28L162.182 28.015L159.362 17.53H161.612L163.457 25.66L165.587 17.53H167.927L169.937 25.615L171.797 17.53H174.062ZM174.893 23.815C174.893 22.975 175.058 22.23 175.388 21.58C175.728 20.93 176.183 20.43 176.753 20.08C177.333 19.73 177.978 19.555 178.688 19.555C179.308 19.555 179.848 19.68 180.308 19.93C180.778 20.18 181.153 20.495 181.433 20.875V19.69H183.548V28H181.433V26.785C181.163 27.175 180.788 27.5 180.308 27.76C179.838 28.01 179.293 28.135 178.673 28.135C177.973 28.135 177.333 27.955 176.753 27.595C176.183 27.235 175.728 26.73 175.388 26.08C175.058 25.42 174.893 24.665 174.893 23.815ZM181.433 23.845C181.433 23.335 181.333 22.9 181.133 22.54C180.933 22.17 180.663 21.89 180.323 21.7C179.983 21.5 179.618 21.4 179.228 21.4C178.838 21.4 178.478 21.495 178.148 21.685C177.818 21.875 177.548 22.155 177.338 22.525C177.138 22.885 177.038 23.315 177.038 23.815C177.038 24.315 177.138 24.755 177.338 25.135C177.548 25.505 177.818 25.79 178.148 25.99C178.488 26.19 178.848 26.29 179.228 26.29C179.618 26.29 179.983 26.195 180.323 26.005C180.663 25.805 180.933 25.525 181.133 25.165C181.333 24.795 181.433 24.355 181.433 23.845ZM187.699 16.9V28H185.599V16.9H187.699ZM191.874 16.9V28H189.774V16.9H191.874ZM196.049 20.89C196.319 20.51 196.689 20.195 197.159 19.945C197.639 19.685 198.184 19.555 198.794 19.555C199.504 19.555 200.144 19.73 200.714 20.08C201.294 20.43 201.749 20.93 202.079 21.58C202.419 22.22 202.589 22.965 202.589 23.815C202.589 24.665 202.419 25.42 202.079 26.08C201.749 26.73 201.294 27.235 200.714 27.595C200.144 27.955 199.504 28.135 198.794 28.135C198.184 28.135 197.644 28.01 197.174 27.76C196.714 27.51 196.339 27.195 196.049 26.815V31.96H193.949V19.69H196.049V20.89ZM200.444 23.815C200.444 23.315 200.339 22.885 200.129 22.525C199.929 22.155 199.659 21.875 199.319 21.685C198.989 21.495 198.629 21.4 198.239 21.4C197.859 21.4 197.499 21.5 197.159 21.7C196.829 21.89 196.559 22.17 196.349 22.54C196.149 22.91 196.049 23.345 196.049 23.845C196.049 24.345 196.149 24.78 196.349 25.15C196.559 25.52 196.829 25.805 197.159 26.005C197.499 26.195 197.859 26.29 198.239 26.29C198.629 26.29 198.989 26.19 199.319 25.99C199.659 25.79 199.929 25.505 200.129 25.135C200.339 24.765 200.444 24.325 200.444 23.815ZM203.575 23.815C203.575 22.975 203.74 22.23 204.07 21.58C204.41 20.93 204.865 20.43 205.435 20.08C206.015 19.73 206.66 19.555 207.37 19.555C207.99 19.555 208.53 19.68 208.99 19.93C209.46 20.18 209.835 20.495 210.115 20.875V19.69H212.23V28H210.115V26.785C209.845 27.175 209.47 27.5 208.99 27.76C208.52 28.01 207.975 28.135 207.355 28.135C206.655 28.135 206.015 27.955 205.435 27.595C204.865 27.235 204.41 26.73 204.07 26.08C203.74 25.42 203.575 24.665 203.575 23.815ZM210.115 23.845C210.115 23.335 210.015 22.9 209.815 22.54C209.615 22.17 209.345 21.89 209.005 21.7C208.665 21.5 208.3 21.4 207.91 21.4C207.52 21.4 207.16 21.495 206.83 21.685C206.5 21.875 206.23 22.155 206.02 22.525C205.82 22.885 205.72 23.315 205.72 23.815C205.72 24.315 205.82 24.755 206.02 25.135C206.23 25.505 206.5 25.79 206.83 25.99C207.17 26.19 207.53 26.29 207.91 26.29C208.3 26.29 208.665 26.195 209.005 26.005C209.345 25.805 209.615 25.525 209.815 25.165C210.015 24.795 210.115 24.355 210.115 23.845ZM216.381 20.89C216.651 20.51 217.021 20.195 217.491 19.945C217.971 19.685 218.516 19.555 219.126 19.555C219.836 19.555 220.476 19.73 221.046 20.08C221.626 20.43 222.081 20.93 222.411 21.58C222.751 22.22 222.921 22.965 222.921 23.815C222.921 24.665 222.751 25.42 222.411 26.08C222.081 26.73 221.626 27.235 221.046 27.595C220.476 27.955 219.836 28.135 219.126 28.135C218.516 28.135 217.976 28.01 217.506 27.76C217.046 27.51 216.671 27.195 216.381 26.815V31.96H214.281V19.69H216.381V20.89ZM220.776 23.815C220.776 23.315 220.671 22.885 220.461 22.525C220.261 22.155 219.991 21.875 219.651 21.685C219.321 21.495 218.961 21.4 218.571 21.4C218.191 21.4 217.831 21.5 217.491 21.7C217.161 21.89 216.891 22.17 216.681 22.54C216.481 22.91 216.381 23.345 216.381 23.845C216.381 24.345 216.481 24.78 216.681 25.15C216.891 25.52 217.161 25.805 217.491 26.005C217.831 26.195 218.191 26.29 218.571 26.29C218.961 26.29 219.321 26.19 219.651 25.99C219.991 25.79 220.261 25.505 220.461 25.135C220.671 24.765 220.776 24.325 220.776 23.815ZM232.172 23.665C232.172 23.965 232.152 24.235 232.112 24.475H226.037C226.087 25.075 226.297 25.545 226.667 25.885C227.037 26.225 227.492 26.395 228.032 26.395C228.812 26.395 229.367 26.06 229.697 25.39H231.962C231.722 26.19 231.262 26.85 230.582 27.37C229.902 27.88 229.067 28.135 228.077 28.135C227.277 28.135 226.557 27.96 225.917 27.61C225.287 27.25 224.792 26.745 224.432 26.095C224.082 25.445 223.907 24.695 223.907 23.845C223.907 22.985 224.082 22.23 224.432 21.58C224.782 20.93 225.272 20.43 225.902 20.08C226.532 19.73 227.257 19.555 228.077 19.555C228.867 19.555 229.572 19.725 230.192 20.065C230.822 20.405 231.307 20.89 231.647 21.52C231.997 22.14 232.172 22.855 232.172 23.665ZM229.997 23.065C229.987 22.525 229.792 22.095 229.412 21.775C229.032 21.445 228.567 21.28 228.017 21.28C227.497 21.28 227.057 21.44 226.697 21.76C226.347 22.07 226.132 22.505 226.052 23.065H229.997ZM235.804 20.98C236.074 20.54 236.424 20.195 236.854 19.945C237.294 19.695 237.794 19.57 238.354 19.57V21.775H237.799C237.139 21.775 236.639 21.93 236.299 22.24C235.969 22.55 235.804 23.09 235.804 23.86V28H233.704V19.69H235.804V20.98ZM248.023 19.57C248.653 19.57 249.213 19.71 249.703 19.99C250.193 20.26 250.573 20.665 250.843 21.205C251.123 21.735 251.263 22.375 251.263 23.125V28H249.163V23.41C249.163 22.75 248.998 22.245 248.668 21.895C248.338 21.535 247.888 21.355 247.318 21.355C246.738 21.355 246.278 21.535 245.938 21.895C245.608 22.245 245.443 22.75 245.443 23.41V28H243.343V16.9H245.443V20.725C245.713 20.365 246.073 20.085 246.523 19.885C246.973 19.675 247.473 19.57 248.023 19.57ZM260.985 23.665C260.985 23.965 260.965 24.235 260.925 24.475H254.85C254.9 25.075 255.11 25.545 255.48 25.885C255.85 26.225 256.305 26.395 256.845 26.395C257.625 26.395 258.18 26.06 258.51 25.39H260.775C260.535 26.19 260.075 26.85 259.395 27.37C258.715 27.88 257.88 28.135 256.89 28.135C256.09 28.135 255.37 27.96 254.73 27.61C254.1 27.25 253.605 26.745 253.245 26.095C252.895 25.445 252.72 24.695 252.72 23.845C252.72 22.985 252.895 22.23 253.245 21.58C253.595 20.93 254.085 20.43 254.715 20.08C255.345 19.73 256.07 19.555 256.89 19.555C257.68 19.555 258.385 19.725 259.005 20.065C259.635 20.405 260.12 20.89 260.46 21.52C260.81 22.14 260.985 22.855 260.985 23.665ZM258.81 23.065C258.8 22.525 258.605 22.095 258.225 21.775C257.845 21.445 257.38 21.28 256.83 21.28C256.31 21.28 255.87 21.44 255.51 21.76C255.16 22.07 254.945 22.505 254.865 23.065H258.81ZM264.618 20.98C264.888 20.54 265.238 20.195 265.668 19.945C266.108 19.695 266.608 19.57 267.168 19.57V21.775H266.613C265.953 21.775 265.453 21.93 265.113 22.24C264.783 22.55 264.618 23.09 264.618 23.86V28H262.518V19.69H264.618V20.98ZM276.307 23.665C276.307 23.965 276.287 24.235 276.247 24.475H270.172C270.222 25.075 270.432 25.545 270.802 25.885C271.172 26.225 271.627 26.395 272.167 26.395C272.947 26.395 273.502 26.06 273.832 25.39H276.097C275.857 26.19 275.397 26.85 274.717 27.37C274.037 27.88 273.202 28.135 272.212 28.135C271.412 28.135 270.692 27.96 270.052 27.61C269.422 27.25 268.927 26.745 268.567 26.095C268.217 25.445 268.042 24.695 268.042 23.845C268.042 22.985 268.217 22.23 268.567 21.58C268.917 20.93 269.407 20.43 270.037 20.08C270.667 19.73 271.392 19.555 272.212 19.555C273.002 19.555 273.707 19.725 274.327 20.065C274.957 20.405 275.442 20.89 275.782 21.52C276.132 22.14 276.307 22.855 276.307 23.665ZM274.132 23.065C274.122 22.525 273.927 22.095 273.547 21.775C273.167 21.445 272.702 21.28 272.152 21.28C271.632 21.28 271.192 21.44 270.832 21.76C270.482 22.07 270.267 22.505 270.187 23.065H274.132ZM285.224 21.415H283.769V28H281.639V21.415H280.694V19.69H281.639V19.27C281.639 18.25 281.929 17.5 282.509 17.02C283.089 16.54 283.964 16.315 285.134 16.345V18.115C284.624 18.105 284.269 18.19 284.069 18.37C283.869 18.55 283.769 18.875 283.769 19.345V19.69H285.224V21.415ZM290.275 28.135C289.475 28.135 288.755 27.96 288.115 27.61C287.475 27.25 286.97 26.745 286.6 26.095C286.24 25.445 286.06 24.695 286.06 23.845C286.06 22.995 286.245 22.245 286.615 21.595C286.995 20.945 287.51 20.445 288.16 20.095C288.81 19.735 289.535 19.555 290.335 19.555C291.135 19.555 291.86 19.735 292.51 20.095C293.16 20.445 293.67 20.945 294.04 21.595C294.42 22.245 294.61 22.995 294.61 23.845C294.61 24.695 294.415 25.445 294.025 26.095C293.645 26.745 293.125 27.25 292.465 27.61C291.815 27.96 291.085 28.135 290.275 28.135ZM290.275 26.305C290.655 26.305 291.01 26.215 291.34 26.035C291.68 25.845 291.95 25.565 292.15 25.195C292.35 24.825 292.45 24.375 292.45 23.845C292.45 23.055 292.24 22.45 291.82 22.03C291.41 21.6 290.905 21.385 290.305 21.385C289.705 21.385 289.2 21.6 288.79 22.03C288.39 22.45 288.19 23.055 288.19 23.845C288.19 24.635 288.385 25.245 288.775 25.675C289.175 26.095 289.675 26.305 290.275 26.305ZM298.251 20.98C298.521 20.54 298.871 20.195 299.301 19.945C299.741 19.695 300.241 19.57 300.801 19.57V21.775H300.246C299.586 21.775 299.086 21.93 298.746 22.24C298.416 22.55 298.251 23.09 298.251 23.86V28H296.151V19.69H298.251V20.98ZM309.599 21.415H308.144V28H306.014V21.415H305.069V19.69H306.014V19.27C306.014 18.25 306.304 17.5 306.884 17.02C307.464 16.54 308.339 16.315 309.509 16.345V18.115C308.999 18.105 308.644 18.19 308.444 18.37C308.244 18.55 308.144 18.875 308.144 19.345V19.69H309.599V21.415ZM313.06 20.98C313.33 20.54 313.68 20.195 314.11 19.945C314.55 19.695 315.05 19.57 315.61 19.57V21.775H315.055C314.395 21.775 313.895 21.93 313.555 22.24C313.225 22.55 313.06 23.09 313.06 23.86V28H310.96V19.69H313.06V20.98ZM324.75 23.665C324.75 23.965 324.73 24.235 324.69 24.475H318.615C318.665 25.075 318.875 25.545 319.245 25.885C319.615 26.225 320.07 26.395 320.61 26.395C321.39 26.395 321.945 26.06 322.275 25.39H324.54C324.3 26.19 323.84 26.85 323.16 27.37C322.48 27.88 321.645 28.135 320.655 28.135C319.855 28.135 319.135 27.96 318.495 27.61C317.865 27.25 317.37 26.745 317.01 26.095C316.66 25.445 316.485 24.695 316.485 23.845C316.485 22.985 316.66 22.23 317.01 21.58C317.36 20.93 317.85 20.43 318.48 20.08C319.11 19.73 319.835 19.555 320.655 19.555C321.445 19.555 322.15 19.725 322.77 20.065C323.4 20.405 323.885 20.89 324.225 21.52C324.575 22.14 324.75 22.855 324.75 23.665ZM322.575 23.065C322.565 22.525 322.37 22.095 321.99 21.775C321.61 21.445 321.145 21.28 320.595 21.28C320.075 21.28 319.635 21.44 319.275 21.76C318.925 22.07 318.71 22.505 318.63 23.065H322.575ZM334.008 23.665C334.008 23.965 333.988 24.235 333.948 24.475H327.873C327.923 25.075 328.133 25.545 328.503 25.885C328.873 26.225 329.328 26.395 329.868 26.395C330.648 26.395 331.203 26.06 331.533 25.39H333.798C333.558 26.19 333.098 26.85 332.418 27.37C331.738 27.88 330.903 28.135 329.913 28.135C329.113 28.135 328.393 27.96 327.753 27.61C327.123 27.25 326.628 26.745 326.268 26.095C325.918 25.445 325.743 24.695 325.743 23.845C325.743 22.985 325.918 22.23 326.268 21.58C326.618 20.93 327.108 20.43 327.738 20.08C328.368 19.73 329.093 19.555 329.913 19.555C330.703 19.555 331.408 19.725 332.028 20.065C332.658 20.405 333.143 20.89 333.483 21.52C333.833 22.14 334.008 22.855 334.008 23.665ZM331.833 23.065C331.823 22.525 331.628 22.095 331.248 21.775C330.868 21.445 330.403 21.28 329.853 21.28C329.333 21.28 328.893 21.44 328.533 21.76C328.183 22.07 327.968 22.505 327.888 23.065H331.833ZM338.08 29.05H353.08V14.05H338.08V29.05ZM353.08 29.05H368.08V14.05H353.08V29.05ZM368.08 29.05H383.08V14.05H368.08V29.05Z" fill="#292B30"/>
<path opacity="0.8" d="M134.09 34.818C134.546 34.818 134.94 34.904 135.272 35.076C135.608 35.244 135.864 35.486 136.04 35.802C136.22 36.118 136.31 36.49 136.31 36.918C136.31 37.346 136.22 37.718 136.04 38.034C135.864 38.346 135.608 38.586 135.272 38.754C134.94 38.918 134.546 39 134.09 39H132.788V34.818H134.09ZM134.09 38.55C134.63 38.55 135.042 38.408 135.326 38.124C135.61 37.836 135.752 37.434 135.752 36.918C135.752 36.398 135.608 35.992 135.32 35.7C135.036 35.408 134.626 35.262 134.09 35.262H133.334V38.55H134.09ZM138.464 39.054C138.156 39.054 137.876 38.984 137.624 38.844C137.376 38.704 137.18 38.506 137.036 38.25C136.896 37.99 136.826 37.69 136.826 37.35C136.826 37.014 136.898 36.718 137.042 36.462C137.19 36.202 137.39 36.004 137.642 35.868C137.894 35.728 138.176 35.658 138.488 35.658C138.8 35.658 139.082 35.728 139.334 35.868C139.586 36.004 139.784 36.2 139.928 36.456C140.076 36.712 140.15 37.01 140.15 37.35C140.15 37.69 140.074 37.99 139.922 38.25C139.774 38.506 139.572 38.704 139.316 38.844C139.06 38.984 138.776 39.054 138.464 39.054ZM138.464 38.574C138.66 38.574 138.844 38.528 139.016 38.436C139.188 38.344 139.326 38.206 139.43 38.022C139.538 37.838 139.592 37.614 139.592 37.35C139.592 37.086 139.54 36.862 139.436 36.678C139.332 36.494 139.196 36.358 139.028 36.27C138.86 36.178 138.678 36.132 138.482 36.132C138.282 36.132 138.098 36.178 137.93 36.27C137.766 36.358 137.634 36.494 137.534 36.678C137.434 36.862 137.384 37.086 137.384 37.35C137.384 37.618 137.432 37.844 137.528 38.028C137.628 38.212 137.76 38.35 137.924 38.442C138.088 38.53 138.268 38.574 138.464 38.574ZM145.248 35.712L144.222 39H143.658L142.866 36.39L142.074 39H141.51L140.478 35.712H141.036L141.792 38.472L142.608 35.712H143.166L143.964 38.478L144.708 35.712H145.248ZM147.392 35.652C147.792 35.652 148.116 35.774 148.364 36.018C148.612 36.258 148.736 36.606 148.736 37.062V39H148.196V37.14C148.196 36.812 148.114 36.562 147.95 36.39C147.786 36.214 147.562 36.126 147.278 36.126C146.99 36.126 146.76 36.216 146.588 36.396C146.42 36.576 146.336 36.838 146.336 37.182V39H145.79V35.712H146.336V36.18C146.444 36.012 146.59 35.882 146.774 35.79C146.962 35.698 147.168 35.652 147.392 35.652ZM150.174 34.56V39H149.628V34.56H150.174ZM152.539 39.054C152.231 39.054 151.951 38.984 151.699 38.844C151.451 38.704 151.255 38.506 151.111 38.25C150.971 37.99 150.901 37.69 150.901 37.35C150.901 37.014 150.973 36.718 151.117 36.462C151.265 36.202 151.465 36.004 151.717 35.868C151.969 35.728 152.251 35.658 152.563 35.658C152.875 35.658 153.157 35.728 153.409 35.868C153.661 36.004 153.859 36.2 154.003 36.456C154.151 36.712 154.225 37.01 154.225 37.35C154.225 37.69 154.149 37.99 153.997 38.25C153.849 38.506 153.647 38.704 153.391 38.844C153.135 38.984 152.851 39.054 152.539 39.054ZM152.539 38.574C152.735 38.574 152.919 38.528 153.091 38.436C153.263 38.344 153.401 38.206 153.505 38.022C153.613 37.838 153.667 37.614 153.667 37.35C153.667 37.086 153.615 36.862 153.511 36.678C153.407 36.494 153.271 36.358 153.103 36.27C152.935 36.178 152.753 36.132 152.557 36.132C152.357 36.132 152.173 36.178 152.005 36.27C151.841 36.358 151.709 36.494 151.609 36.678C151.509 36.862 151.459 37.086 151.459 37.35C151.459 37.618 151.507 37.844 151.603 38.028C151.703 38.212 151.835 38.35 151.999 38.442C152.163 38.53 152.343 38.574 152.539 38.574ZM154.738 37.344C154.738 37.008 154.806 36.714 154.942 36.462C155.078 36.206 155.264 36.008 155.5 35.868C155.74 35.728 156.006 35.658 156.298 35.658C156.586 35.658 156.836 35.72 157.048 35.844C157.26 35.968 157.418 36.124 157.522 36.312V35.712H158.074V39H157.522V38.388C157.414 38.58 157.252 38.74 157.036 38.868C156.824 38.992 156.576 39.054 156.292 39.054C156 39.054 155.736 38.982 155.5 38.838C155.264 38.694 155.078 38.492 154.942 38.232C154.806 37.972 154.738 37.676 154.738 37.344ZM157.522 37.35C157.522 37.102 157.472 36.886 157.372 36.702C157.272 36.518 157.136 36.378 156.964 36.282C156.796 36.182 156.61 36.132 156.406 36.132C156.202 36.132 156.016 36.18 155.848 36.276C155.68 36.372 155.546 36.512 155.446 36.696C155.346 36.88 155.296 37.096 155.296 37.344C155.296 37.596 155.346 37.816 155.446 38.004C155.546 38.188 155.68 38.33 155.848 38.43C156.016 38.526 156.202 38.574 156.406 38.574C156.61 38.574 156.796 38.526 156.964 38.43C157.136 38.33 157.272 38.188 157.372 38.004C157.472 37.816 157.522 37.598 157.522 37.35ZM158.793 37.344C158.793 37.008 158.861 36.714 158.997 36.462C159.133 36.206 159.319 36.008 159.555 35.868C159.795 35.728 160.063 35.658 160.359 35.658C160.615 35.658 160.853 35.718 161.073 35.838C161.293 35.954 161.461 36.108 161.577 36.3V34.56H162.129V39H161.577V38.382C161.469 38.578 161.309 38.74 161.097 38.868C160.885 38.992 160.637 39.054 160.353 39.054C160.061 39.054 159.795 38.982 159.555 38.838C159.319 38.694 159.133 38.492 158.997 38.232C158.861 37.972 158.793 37.676 158.793 37.344ZM161.577 37.35C161.577 37.102 161.527 36.886 161.427 36.702C161.327 36.518 161.191 36.378 161.019 36.282C160.851 36.182 160.665 36.132 160.461 36.132C160.257 36.132 160.071 36.18 159.903 36.276C159.735 36.372 159.601 36.512 159.501 36.696C159.401 36.88 159.351 37.096 159.351 37.344C159.351 37.596 159.401 37.816 159.501 38.004C159.601 38.188 159.735 38.33 159.903 38.43C160.071 38.526 160.257 38.574 160.461 38.574C160.665 38.574 160.851 38.526 161.019 38.43C161.191 38.33 161.327 38.188 161.427 38.004C161.527 37.816 161.577 37.598 161.577 37.35ZM167.651 37.23C167.651 37.334 167.645 37.444 167.633 37.56H165.005C165.025 37.884 165.135 38.138 165.335 38.322C165.539 38.502 165.785 38.592 166.073 38.592C166.309 38.592 166.505 38.538 166.661 38.43C166.821 38.318 166.933 38.17 166.997 37.986H167.585C167.497 38.302 167.321 38.56 167.057 38.76C166.793 38.956 166.465 39.054 166.073 39.054C165.761 39.054 165.481 38.984 165.233 38.844C164.989 38.704 164.797 38.506 164.657 38.25C164.517 37.99 164.447 37.69 164.447 37.35C164.447 37.01 164.515 36.712 164.651 36.456C164.787 36.2 164.977 36.004 165.221 35.868C165.469 35.728 165.753 35.658 166.073 35.658C166.385 35.658 166.661 35.726 166.901 35.862C167.141 35.998 167.325 36.186 167.453 36.426C167.585 36.662 167.651 36.93 167.651 37.23ZM167.087 37.116C167.087 36.908 167.041 36.73 166.949 36.582C166.857 36.43 166.731 36.316 166.571 36.24C166.415 36.16 166.241 36.12 166.049 36.12C165.773 36.12 165.537 36.208 165.341 36.384C165.149 36.56 165.039 36.804 165.011 37.116H167.087ZM169.974 35.652C170.374 35.652 170.698 35.774 170.946 36.018C171.194 36.258 171.318 36.606 171.318 37.062V39H170.778V37.14C170.778 36.812 170.696 36.562 170.532 36.39C170.368 36.214 170.144 36.126 169.86 36.126C169.572 36.126 169.342 36.216 169.17 36.396C169.002 36.576 168.918 36.838 168.918 37.182V39H168.372V35.712H168.918V36.18C169.026 36.012 169.172 35.882 169.356 35.79C169.544 35.698 169.75 35.652 169.974 35.652ZM172.006 37.344C172.006 37.008 172.074 36.714 172.21 36.462C172.346 36.206 172.532 36.008 172.768 35.868C173.008 35.728 173.276 35.658 173.572 35.658C173.828 35.658 174.066 35.718 174.286 35.838C174.506 35.954 174.674 36.108 174.79 36.3V34.56H175.342V39H174.79V38.382C174.682 38.578 174.522 38.74 174.31 38.868C174.098 38.992 173.85 39.054 173.566 39.054C173.274 39.054 173.008 38.982 172.768 38.838C172.532 38.694 172.346 38.492 172.21 38.232C172.074 37.972 172.006 37.676 172.006 37.344ZM174.79 37.35C174.79 37.102 174.74 36.886 174.64 36.702C174.54 36.518 174.404 36.378 174.232 36.282C174.064 36.182 173.878 36.132 173.674 36.132C173.47 36.132 173.284 36.18 173.116 36.276C172.948 36.372 172.814 36.512 172.714 36.696C172.614 36.88 172.564 37.096 172.564 37.344C172.564 37.596 172.614 37.816 172.714 38.004C172.814 38.188 172.948 38.33 173.116 38.43C173.284 38.526 173.47 38.574 173.674 38.574C173.878 38.574 174.064 38.526 174.232 38.43C174.404 38.33 174.54 38.188 174.64 38.004C174.74 37.816 174.79 37.598 174.79 37.35ZM178.545 36.57V37.032H176.151V36.57H178.545ZM180.235 36.162V38.1C180.235 38.26 180.269 38.374 180.337 38.442C180.405 38.506 180.523 38.538 180.691 38.538H181.093V39H180.601C180.297 39 180.069 38.93 179.917 38.79C179.765 38.65 179.689 38.42 179.689 38.1V36.162H179.263V35.712H179.689V34.884H180.235V35.712H181.093V36.162H180.235ZM183.189 39.054C182.881 39.054 182.601 38.984 182.349 38.844C182.101 38.704 181.905 38.506 181.761 38.25C181.621 37.99 181.551 37.69 181.551 37.35C181.551 37.014 181.623 36.718 181.767 36.462C181.915 36.202 182.115 36.004 182.367 35.868C182.619 35.728 182.901 35.658 183.213 35.658C183.525 35.658 183.807 35.728 184.059 35.868C184.311 36.004 184.509 36.2 184.653 36.456C184.801 36.712 184.875 37.01 184.875 37.35C184.875 37.69 184.799 37.99 184.647 38.25C184.499 38.506 184.297 38.704 184.041 38.844C183.785 38.984 183.501 39.054 183.189 39.054ZM183.189 38.574C183.385 38.574 183.569 38.528 183.741 38.436C183.913 38.344 184.051 38.206 184.155 38.022C184.263 37.838 184.317 37.614 184.317 37.35C184.317 37.086 184.265 36.862 184.161 36.678C184.057 36.494 183.921 36.358 183.753 36.27C183.585 36.178 183.403 36.132 183.207 36.132C183.007 36.132 182.823 36.178 182.655 36.27C182.491 36.358 182.359 36.494 182.259 36.678C182.159 36.862 182.109 37.086 182.109 37.35C182.109 37.618 182.157 37.844 182.253 38.028C182.353 38.212 182.485 38.35 182.649 38.442C182.813 38.53 182.993 38.574 183.189 38.574ZM187.873 36.57V37.032H185.479V36.57H187.873ZM191.898 37.23C191.898 37.334 191.892 37.444 191.88 37.56H189.252C189.272 37.884 189.382 38.138 189.582 38.322C189.786 38.502 190.032 38.592 190.32 38.592C190.556 38.592 190.752 38.538 190.908 38.43C191.068 38.318 191.18 38.17 191.244 37.986H191.832C191.744 38.302 191.568 38.56 191.304 38.76C191.04 38.956 190.712 39.054 190.32 39.054C190.008 39.054 189.728 38.984 189.48 38.844C189.236 38.704 189.044 38.506 188.904 38.25C188.764 37.99 188.694 37.69 188.694 37.35C188.694 37.01 188.762 36.712 188.898 36.456C189.034 36.2 189.224 36.004 189.468 35.868C189.716 35.728 190 35.658 190.32 35.658C190.632 35.658 190.908 35.726 191.148 35.862C191.388 35.998 191.572 36.186 191.7 36.426C191.832 36.662 191.898 36.93 191.898 37.23ZM191.334 37.116C191.334 36.908 191.288 36.73 191.196 36.582C191.104 36.43 190.978 36.316 190.818 36.24C190.662 36.16 190.488 36.12 190.296 36.12C190.02 36.12 189.784 36.208 189.588 36.384C189.396 36.56 189.286 36.804 189.258 37.116H191.334ZM194.22 35.652C194.62 35.652 194.944 35.774 195.192 36.018C195.44 36.258 195.564 36.606 195.564 37.062V39H195.024V37.14C195.024 36.812 194.942 36.562 194.778 36.39C194.614 36.214 194.39 36.126 194.106 36.126C193.818 36.126 193.588 36.216 193.416 36.396C193.248 36.576 193.164 36.838 193.164 37.182V39H192.618V35.712H193.164V36.18C193.272 36.012 193.418 35.882 193.602 35.79C193.79 35.698 193.996 35.652 194.22 35.652ZM196.252 37.344C196.252 37.008 196.32 36.714 196.456 36.462C196.592 36.206 196.778 36.008 197.014 35.868C197.254 35.728 197.522 35.658 197.818 35.658C198.074 35.658 198.312 35.718 198.532 35.838C198.752 35.954 198.92 36.108 199.036 36.3V34.56H199.588V39H199.036V38.382C198.928 38.578 198.768 38.74 198.556 38.868C198.344 38.992 198.096 39.054 197.812 39.054C197.52 39.054 197.254 38.982 197.014 38.838C196.778 38.694 196.592 38.492 196.456 38.232C196.32 37.972 196.252 37.676 196.252 37.344ZM199.036 37.35C199.036 37.102 198.986 36.886 198.886 36.702C198.786 36.518 198.65 36.378 198.478 36.282C198.31 36.182 198.124 36.132 197.92 36.132C197.716 36.132 197.53 36.18 197.362 36.276C197.194 36.372 197.06 36.512 196.96 36.696C196.86 36.88 196.81 37.096 196.81 37.344C196.81 37.596 196.86 37.816 196.96 38.004C197.06 38.188 197.194 38.33 197.362 38.43C197.53 38.526 197.716 38.574 197.92 38.574C198.124 38.574 198.31 38.526 198.478 38.43C198.65 38.33 198.786 38.188 198.886 38.004C198.986 37.816 199.036 37.598 199.036 37.35ZM205.11 37.23C205.11 37.334 205.104 37.444 205.092 37.56H202.464C202.484 37.884 202.594 38.138 202.794 38.322C202.998 38.502 203.244 38.592 203.532 38.592C203.768 38.592 203.964 38.538 204.12 38.43C204.28 38.318 204.392 38.17 204.456 37.986H205.044C204.956 38.302 204.78 38.56 204.516 38.76C204.252 38.956 203.924 39.054 203.532 39.054C203.22 39.054 202.94 38.984 202.692 38.844C202.448 38.704 202.256 38.506 202.116 38.25C201.976 37.99 201.906 37.69 201.906 37.35C201.906 37.01 201.974 36.712 202.11 36.456C202.246 36.2 202.436 36.004 202.68 35.868C202.928 35.728 203.212 35.658 203.532 35.658C203.844 35.658 204.12 35.726 204.36 35.862C204.6 35.998 204.784 36.186 204.912 36.426C205.044 36.662 205.11 36.93 205.11 37.23ZM204.546 37.116C204.546 36.908 204.5 36.73 204.408 36.582C204.316 36.43 204.19 36.316 204.03 36.24C203.874 36.16 203.7 36.12 203.508 36.12C203.232 36.12 202.996 36.208 202.8 36.384C202.608 36.56 202.498 36.804 202.47 37.116H204.546ZM207.433 35.652C207.833 35.652 208.157 35.774 208.405 36.018C208.653 36.258 208.777 36.606 208.777 37.062V39H208.237V37.14C208.237 36.812 208.155 36.562 207.991 36.39C207.827 36.214 207.603 36.126 207.319 36.126C207.031 36.126 206.801 36.216 206.629 36.396C206.461 36.576 206.377 36.838 206.377 37.182V39H205.831V35.712H206.377V36.18C206.485 36.012 206.631 35.882 206.815 35.79C207.003 35.698 207.209 35.652 207.433 35.652ZM209.465 37.35C209.465 37.01 209.533 36.714 209.669 36.462C209.805 36.206 209.993 36.008 210.233 35.868C210.477 35.728 210.755 35.658 211.067 35.658C211.471 35.658 211.803 35.756 212.063 35.952C212.327 36.148 212.501 36.42 212.585 36.768H211.997C211.941 36.568 211.831 36.41 211.667 36.294C211.507 36.178 211.307 36.12 211.067 36.12C210.755 36.12 210.503 36.228 210.311 36.444C210.119 36.656 210.023 36.958 210.023 37.35C210.023 37.746 210.119 38.052 210.311 38.268C210.503 38.484 210.755 38.592 211.067 38.592C211.307 38.592 211.507 38.536 211.667 38.424C211.827 38.312 211.937 38.152 211.997 37.944H212.585C212.497 38.28 212.321 38.55 212.057 38.754C211.793 38.954 211.463 39.054 211.067 39.054C210.755 39.054 210.477 38.984 210.233 38.844C209.993 38.704 209.805 38.506 209.669 38.25C209.533 37.994 209.465 37.694 209.465 37.35ZM213.86 36.246C213.956 36.058 214.092 35.912 214.268 35.808C214.448 35.704 214.666 35.652 214.922 35.652V36.216H214.778C214.166 36.216 213.86 36.548 213.86 37.212V39H213.314V35.712H213.86V36.246ZM218.384 35.712L216.404 40.548H215.84L216.488 38.964L215.162 35.712H215.768L216.8 38.376L217.82 35.712H218.384ZM219.479 36.318C219.587 36.13 219.747 35.974 219.959 35.85C220.175 35.722 220.425 35.658 220.709 35.658C221.001 35.658 221.265 35.728 221.501 35.868C221.741 36.008 221.929 36.206 222.065 36.462C222.201 36.714 222.269 37.008 222.269 37.344C222.269 37.676 222.201 37.972 222.065 38.232C221.929 38.492 221.741 38.694 221.501 38.838C221.265 38.982 221.001 39.054 220.709 39.054C220.429 39.054 220.181 38.992 219.965 38.868C219.753 38.74 219.591 38.582 219.479 38.394V40.56H218.933V35.712H219.479V36.318ZM221.711 37.344C221.711 37.096 221.661 36.88 221.561 36.696C221.461 36.512 221.325 36.372 221.153 36.276C220.985 36.18 220.799 36.132 220.595 36.132C220.395 36.132 220.209 36.182 220.037 36.282C219.869 36.378 219.733 36.52 219.629 36.708C219.529 36.892 219.479 37.106 219.479 37.35C219.479 37.598 219.529 37.816 219.629 38.004C219.733 38.188 219.869 38.33 220.037 38.43C220.209 38.526 220.395 38.574 220.595 38.574C220.799 38.574 220.985 38.526 221.153 38.43C221.325 38.33 221.461 38.188 221.561 38.004C221.661 37.816 221.711 37.596 221.711 37.344ZM223.653 36.162V38.1C223.653 38.26 223.687 38.374 223.755 38.442C223.823 38.506 223.941 38.538 224.109 38.538H224.511V39H224.019C223.715 39 223.487 38.93 223.335 38.79C223.183 38.65 223.107 38.42 223.107 38.1V36.162H222.681V35.712H223.107V34.884H223.653V35.712H224.511V36.162H223.653ZM228.173 37.23C228.173 37.334 228.167 37.444 228.155 37.56H225.527C225.547 37.884 225.657 38.138 225.857 38.322C226.061 38.502 226.307 38.592 226.595 38.592C226.831 38.592 227.027 38.538 227.183 38.43C227.343 38.318 227.455 38.17 227.519 37.986H228.107C228.019 38.302 227.843 38.56 227.579 38.76C227.315 38.956 226.987 39.054 226.595 39.054C226.283 39.054 226.003 38.984 225.755 38.844C225.511 38.704 225.319 38.506 225.179 38.25C225.039 37.99 224.969 37.69 224.969 37.35C224.969 37.01 225.037 36.712 225.173 36.456C225.309 36.2 225.499 36.004 225.743 35.868C225.991 35.728 226.275 35.658 226.595 35.658C226.907 35.658 227.183 35.726 227.423 35.862C227.663 35.998 227.847 36.186 227.975 36.426C228.107 36.662 228.173 36.93 228.173 37.23ZM227.609 37.116C227.609 36.908 227.563 36.73 227.471 36.582C227.379 36.43 227.253 36.316 227.093 36.24C226.937 36.16 226.763 36.12 226.571 36.12C226.295 36.12 226.059 36.208 225.863 36.384C225.671 36.56 225.561 36.804 225.533 37.116H227.609ZM228.69 37.344C228.69 37.008 228.758 36.714 228.894 36.462C229.03 36.206 229.216 36.008 229.452 35.868C229.692 35.728 229.96 35.658 230.256 35.658C230.512 35.658 230.75 35.718 230.97 35.838C231.19 35.954 231.358 36.108 231.474 36.3V34.56H232.026V39H231.474V38.382C231.366 38.578 231.206 38.74 230.994 38.868C230.782 38.992 230.534 39.054 230.25 39.054C229.958 39.054 229.692 38.982 229.452 38.838C229.216 38.694 229.03 38.492 228.894 38.232C228.758 37.972 228.69 37.676 228.69 37.344ZM231.474 37.35C231.474 37.102 231.424 36.886 231.324 36.702C231.224 36.518 231.088 36.378 230.916 36.282C230.748 36.182 230.562 36.132 230.358 36.132C230.154 36.132 229.968 36.18 229.8 36.276C229.632 36.372 229.498 36.512 229.398 36.696C229.298 36.88 229.248 37.096 229.248 37.344C229.248 37.596 229.298 37.816 229.398 38.004C229.498 38.188 229.632 38.33 229.8 38.43C229.968 38.526 230.154 38.574 230.358 38.574C230.562 38.574 230.748 38.526 230.916 38.43C231.088 38.33 231.224 38.188 231.324 38.004C231.424 37.816 231.474 37.598 231.474 37.35ZM235.982 39.054C235.674 39.054 235.394 38.984 235.142 38.844C234.894 38.704 234.698 38.506 234.554 38.25C234.414 37.99 234.344 37.69 234.344 37.35C234.344 37.014 234.416 36.718 234.56 36.462C234.708 36.202 234.908 36.004 235.16 35.868C235.412 35.728 235.694 35.658 236.006 35.658C236.318 35.658 236.6 35.728 236.852 35.868C237.104 36.004 237.302 36.2 237.446 36.456C237.594 36.712 237.668 37.01 237.668 37.35C237.668 37.69 237.592 37.99 237.44 38.25C237.292 38.506 237.09 38.704 236.834 38.844C236.578 38.984 236.294 39.054 235.982 39.054ZM235.982 38.574C236.178 38.574 236.362 38.528 236.534 38.436C236.706 38.344 236.844 38.206 236.948 38.022C237.056 37.838 237.11 37.614 237.11 37.35C237.11 37.086 237.058 36.862 236.954 36.678C236.85 36.494 236.714 36.358 236.546 36.27C236.378 36.178 236.196 36.132 236 36.132C235.8 36.132 235.616 36.178 235.448 36.27C235.284 36.358 235.152 36.494 235.052 36.678C234.952 36.862 234.902 37.086 234.902 37.35C234.902 37.618 234.95 37.844 235.046 38.028C235.146 38.212 235.278 38.35 235.442 38.442C235.606 38.53 235.786 38.574 235.982 38.574ZM239.988 35.652C240.388 35.652 240.712 35.774 240.96 36.018C241.208 36.258 241.332 36.606 241.332 37.062V39H240.792V37.14C240.792 36.812 240.71 36.562 240.546 36.39C240.382 36.214 240.158 36.126 239.874 36.126C239.586 36.126 239.356 36.216 239.184 36.396C239.016 36.576 238.932 36.838 238.932 37.182V39H238.386V35.712H238.932V36.18C239.04 36.012 239.186 35.882 239.37 35.79C239.558 35.698 239.764 35.652 239.988 35.652ZM246.619 36.042C246.619 36.39 246.499 36.68 246.259 36.912C246.023 37.14 245.661 37.254 245.173 37.254H244.369V39H243.823V34.818H245.173C245.645 34.818 246.003 34.932 246.247 35.16C246.495 35.388 246.619 35.682 246.619 36.042ZM245.173 36.804C245.477 36.804 245.701 36.738 245.845 36.606C245.989 36.474 246.061 36.286 246.061 36.042C246.061 35.526 245.765 35.268 245.173 35.268H244.369V36.804H245.173ZM247.844 36.246C247.94 36.058 248.076 35.912 248.252 35.808C248.432 35.704 248.65 35.652 248.906 35.652V36.216H248.762C248.15 36.216 247.844 36.548 247.844 37.212V39H247.298V35.712H247.844V36.246ZM250.97 39.054C250.662 39.054 250.382 38.984 250.13 38.844C249.882 38.704 249.686 38.506 249.542 38.25C249.402 37.99 249.332 37.69 249.332 37.35C249.332 37.014 249.404 36.718 249.548 36.462C249.696 36.202 249.896 36.004 250.148 35.868C250.4 35.728 250.682 35.658 250.994 35.658C251.306 35.658 251.588 35.728 251.84 35.868C252.092 36.004 252.29 36.2 252.434 36.456C252.582 36.712 252.656 37.01 252.656 37.35C252.656 37.69 252.58 37.99 252.428 38.25C252.28 38.506 252.078 38.704 251.822 38.844C251.566 38.984 251.282 39.054 250.97 39.054ZM250.97 38.574C251.166 38.574 251.35 38.528 251.522 38.436C251.694 38.344 251.832 38.206 251.936 38.022C252.044 37.838 252.098 37.614 252.098 37.35C252.098 37.086 252.046 36.862 251.942 36.678C251.838 36.494 251.702 36.358 251.534 36.27C251.366 36.178 251.184 36.132 250.988 36.132C250.788 36.132 250.604 36.178 250.436 36.27C250.272 36.358 250.14 36.494 250.04 36.678C249.94 36.862 249.89 37.086 249.89 37.35C249.89 37.618 249.938 37.844 250.034 38.028C250.134 38.212 250.266 38.35 250.43 38.442C250.594 38.53 250.774 38.574 250.97 38.574ZM254.04 36.162V38.1C254.04 38.26 254.074 38.374 254.142 38.442C254.21 38.506 254.328 38.538 254.496 38.538H254.898V39H254.406C254.102 39 253.874 38.93 253.722 38.79C253.57 38.65 253.494 38.42 253.494 38.1V36.162H253.068V35.712H253.494V34.884H254.04V35.712H254.898V36.162H254.04ZM256.994 39.054C256.686 39.054 256.406 38.984 256.154 38.844C255.906 38.704 255.71 38.506 255.566 38.25C255.426 37.99 255.356 37.69 255.356 37.35C255.356 37.014 255.428 36.718 255.572 36.462C255.72 36.202 255.92 36.004 256.172 35.868C256.424 35.728 256.706 35.658 257.018 35.658C257.33 35.658 257.612 35.728 257.864 35.868C258.116 36.004 258.314 36.2 258.458 36.456C258.606 36.712 258.68 37.01 258.68 37.35C258.68 37.69 258.604 37.99 258.452 38.25C258.304 38.506 258.102 38.704 257.846 38.844C257.59 38.984 257.306 39.054 256.994 39.054ZM256.994 38.574C257.19 38.574 257.374 38.528 257.546 38.436C257.718 38.344 257.856 38.206 257.96 38.022C258.068 37.838 258.122 37.614 258.122 37.35C258.122 37.086 258.07 36.862 257.966 36.678C257.862 36.494 257.726 36.358 257.558 36.27C257.39 36.178 257.208 36.132 257.012 36.132C256.812 36.132 256.628 36.178 256.46 36.27C256.296 36.358 256.164 36.494 256.064 36.678C255.964 36.862 255.914 37.086 255.914 37.35C255.914 37.618 255.962 37.844 256.058 38.028C256.158 38.212 256.29 38.35 256.454 38.442C256.618 38.53 256.798 38.574 256.994 38.574ZM261 35.652C261.4 35.652 261.724 35.774 261.972 36.018C262.22 36.258 262.344 36.606 262.344 37.062V39H261.804V37.14C261.804 36.812 261.722 36.562 261.558 36.39C261.394 36.214 261.17 36.126 260.886 36.126C260.598 36.126 260.368 36.216 260.196 36.396C260.028 36.576 259.944 36.838 259.944 37.182V39H259.398V35.712H259.944V36.18C260.052 36.012 260.198 35.882 260.382 35.79C260.57 35.698 260.776 35.652 261 35.652ZM266.137 34.818C266.593 34.818 266.987 34.904 267.319 35.076C267.655 35.244 267.911 35.486 268.087 35.802C268.267 36.118 268.357 36.49 268.357 36.918C268.357 37.346 268.267 37.718 268.087 38.034C267.911 38.346 267.655 38.586 267.319 38.754C266.987 38.918 266.593 39 266.137 39H264.835V34.818H266.137ZM266.137 38.55C266.677 38.55 267.089 38.408 267.373 38.124C267.657 37.836 267.799 37.434 267.799 36.918C267.799 36.398 267.655 35.992 267.367 35.7C267.083 35.408 266.673 35.262 266.137 35.262H265.381V38.55H266.137ZM269.623 36.246C269.719 36.058 269.855 35.912 270.031 35.808C270.211 35.704 270.429 35.652 270.685 35.652V36.216H270.541C269.929 36.216 269.623 36.548 269.623 37.212V39H269.077V35.712H269.623V36.246ZM271.598 35.178C271.494 35.178 271.406 35.142 271.334 35.07C271.262 34.998 271.226 34.91 271.226 34.806C271.226 34.702 271.262 34.614 271.334 34.542C271.406 34.47 271.494 34.434 271.598 34.434C271.698 34.434 271.782 34.47 271.85 34.542C271.922 34.614 271.958 34.702 271.958 34.806C271.958 34.91 271.922 34.998 271.85 35.07C271.782 35.142 271.698 35.178 271.598 35.178ZM271.862 35.712V39H271.316V35.712H271.862ZM274.016 38.496L275.036 35.712H275.618L274.328 39H273.692L272.402 35.712H272.99L274.016 38.496ZM279.155 37.23C279.155 37.334 279.149 37.444 279.137 37.56H276.509C276.529 37.884 276.639 38.138 276.839 38.322C277.043 38.502 277.289 38.592 277.577 38.592C277.813 38.592 278.009 38.538 278.165 38.43C278.325 38.318 278.437 38.17 278.501 37.986H279.089C279.001 38.302 278.825 38.56 278.561 38.76C278.297 38.956 277.969 39.054 277.577 39.054C277.265 39.054 276.985 38.984 276.737 38.844C276.493 38.704 276.301 38.506 276.161 38.25C276.021 37.99 275.951 37.69 275.951 37.35C275.951 37.01 276.019 36.712 276.155 36.456C276.291 36.2 276.481 36.004 276.725 35.868C276.973 35.728 277.257 35.658 277.577 35.658C277.889 35.658 278.165 35.726 278.405 35.862C278.645 35.998 278.829 36.186 278.957 36.426C279.089 36.662 279.155 36.93 279.155 37.23ZM278.591 37.116C278.591 36.908 278.545 36.73 278.453 36.582C278.361 36.43 278.235 36.316 278.075 36.24C277.919 36.16 277.745 36.12 277.553 36.12C277.277 36.12 277.041 36.208 276.845 36.384C276.653 36.56 276.543 36.804 276.515 37.116H278.591ZM280.05 39.036C279.946 39.036 279.858 39 279.786 38.928C279.714 38.856 279.678 38.768 279.678 38.664C279.678 38.56 279.714 38.472 279.786 38.4C279.858 38.328 279.946 38.292 280.05 38.292C280.15 38.292 280.234 38.328 280.302 38.4C280.374 38.472 280.41 38.56 280.41 38.664C280.41 38.768 280.374 38.856 280.302 38.928C280.234 39 280.15 39.036 280.05 39.036Z" fill="#292B30"/>
</svg>
