<svg width="413" height="50" viewBox="0 0 413 50" fill="none" xmlns="http://www.w3.org/2000/svg">
<rect width="413" height="50" rx="7" fill="#F0E7E7"/>
<path d="M13.5288 29.05H28.5288V14.05H13.5288V29.05ZM28.5288 29.05H43.5288V14.05H28.5288V29.05ZM43.5288 29.05H58.5288V14.05H43.5288V29.05ZM77.133 17.53L74.208 28H71.733L69.768 20.545L67.713 28L65.253 28.015L62.433 17.53H64.683L66.528 25.66L68.658 17.53H70.998L73.008 25.615L74.868 17.53H77.133ZM77.9642 23.815C77.9642 22.975 78.1292 22.23 78.4592 21.58C78.7992 20.93 79.2542 20.43 79.8242 20.08C80.4042 19.73 81.0492 19.555 81.7592 19.555C82.3792 19.555 82.9192 19.68 83.3792 19.93C83.8492 20.18 84.2242 20.495 84.5042 20.875V19.69H86.6192V28H84.5042V26.785C84.2342 27.175 83.8592 27.5 83.3792 27.76C82.9092 28.01 82.3642 28.135 81.7442 28.135C81.0442 28.135 80.4042 27.955 79.8242 27.595C79.2542 27.235 78.7992 26.73 78.4592 26.08C78.1292 25.42 77.9642 24.665 77.9642 23.815ZM84.5042 23.845C84.5042 23.335 84.4042 22.9 84.2042 22.54C84.0042 22.17 83.7342 21.89 83.3942 21.7C83.0542 21.5 82.6892 21.4 82.2992 21.4C81.9092 21.4 81.5492 21.495 81.2192 21.685C80.8892 21.875 80.6192 22.155 80.4092 22.525C80.2092 22.885 80.1092 23.315 80.1092 23.815C80.1092 24.315 80.2092 24.755 80.4092 25.135C80.6192 25.505 80.8892 25.79 81.2192 25.99C81.5592 26.19 81.9192 26.29 82.2992 26.29C82.6892 26.29 83.0542 26.195 83.3942 26.005C83.7342 25.805 84.0042 25.525 84.2042 25.165C84.4042 24.795 84.5042 24.355 84.5042 23.845ZM90.7703 16.9V28H88.6703V16.9H90.7703ZM94.9451 16.9V28H92.8451V16.9H94.9451ZM99.1199 20.89C99.3899 20.51 99.7599 20.195 100.23 19.945C100.71 19.685 101.255 19.555 101.865 19.555C102.575 19.555 103.215 19.73 103.785 20.08C104.365 20.43 104.82 20.93 105.15 21.58C105.49 22.22 105.66 22.965 105.66 23.815C105.66 24.665 105.49 25.42 105.15 26.08C104.82 26.73 104.365 27.235 103.785 27.595C103.215 27.955 102.575 28.135 101.865 28.135C101.255 28.135 100.715 28.01 100.245 27.76C99.7849 27.51 99.4099 27.195 99.1199 26.815V31.96H97.0199V19.69H99.1199V20.89ZM103.515 23.815C103.515 23.315 103.41 22.885 103.2 22.525C103 22.155 102.73 21.875 102.39 21.685C102.06 21.495 101.7 21.4 101.31 21.4C100.93 21.4 100.57 21.5 100.23 21.7C99.8999 21.89 99.6299 22.17 99.4199 22.54C99.2199 22.91 99.1199 23.345 99.1199 23.845C99.1199 24.345 99.2199 24.78 99.4199 25.15C99.6299 25.52 99.8999 25.805 100.23 26.005C100.57 26.195 100.93 26.29 101.31 26.29C101.7 26.29 102.06 26.19 102.39 25.99C102.73 25.79 103 25.505 103.2 25.135C103.41 24.765 103.515 24.325 103.515 23.815ZM106.646 23.815C106.646 22.975 106.811 22.23 107.141 21.58C107.481 20.93 107.936 20.43 108.506 20.08C109.086 19.73 109.731 19.555 110.441 19.555C111.061 19.555 111.601 19.68 112.061 19.93C112.531 20.18 112.906 20.495 113.186 20.875V19.69H115.301V28H113.186V26.785C112.916 27.175 112.541 27.5 112.061 27.76C111.591 28.01 111.046 28.135 110.426 28.135C109.726 28.135 109.086 27.955 108.506 27.595C107.936 27.235 107.481 26.73 107.141 26.08C106.811 25.42 106.646 24.665 106.646 23.815ZM113.186 23.845C113.186 23.335 113.086 22.9 112.886 22.54C112.686 22.17 112.416 21.89 112.076 21.7C111.736 21.5 111.371 21.4 110.981 21.4C110.591 21.4 110.231 21.495 109.901 21.685C109.571 21.875 109.301 22.155 109.091 22.525C108.891 22.885 108.791 23.315 108.791 23.815C108.791 24.315 108.891 24.755 109.091 25.135C109.301 25.505 109.571 25.79 109.901 25.99C110.241 26.19 110.601 26.29 110.981 26.29C111.371 26.29 111.736 26.195 112.076 26.005C112.416 25.805 112.686 25.525 112.886 25.165C113.086 24.795 113.186 24.355 113.186 23.845ZM119.452 20.89C119.722 20.51 120.092 20.195 120.562 19.945C121.042 19.685 121.587 19.555 122.197 19.555C122.907 19.555 123.547 19.73 124.117 20.08C124.697 20.43 125.152 20.93 125.482 21.58C125.822 22.22 125.992 22.965 125.992 23.815C125.992 24.665 125.822 25.42 125.482 26.08C125.152 26.73 124.697 27.235 124.117 27.595C123.547 27.955 122.907 28.135 122.197 28.135C121.587 28.135 121.047 28.01 120.577 27.76C120.117 27.51 119.742 27.195 119.452 26.815V31.96H117.352V19.69H119.452V20.89ZM123.847 23.815C123.847 23.315 123.742 22.885 123.532 22.525C123.332 22.155 123.062 21.875 122.722 21.685C122.392 21.495 122.032 21.4 121.642 21.4C121.262 21.4 120.902 21.5 120.562 21.7C120.232 21.89 119.962 22.17 119.752 22.54C119.552 22.91 119.452 23.345 119.452 23.845C119.452 24.345 119.552 24.78 119.752 25.15C119.962 25.52 120.232 25.805 120.562 26.005C120.902 26.195 121.262 26.29 121.642 26.29C122.032 26.29 122.392 26.19 122.722 25.99C123.062 25.79 123.332 25.505 123.532 25.135C123.742 24.765 123.847 24.325 123.847 23.815ZM135.243 23.665C135.243 23.965 135.223 24.235 135.183 24.475H129.108C129.158 25.075 129.368 25.545 129.738 25.885C130.108 26.225 130.563 26.395 131.103 26.395C131.883 26.395 132.438 26.06 132.768 25.39H135.033C134.793 26.19 134.333 26.85 133.653 27.37C132.973 27.88 132.138 28.135 131.148 28.135C130.348 28.135 129.628 27.96 128.988 27.61C128.358 27.25 127.863 26.745 127.503 26.095C127.153 25.445 126.978 24.695 126.978 23.845C126.978 22.985 127.153 22.23 127.503 21.58C127.853 20.93 128.343 20.43 128.973 20.08C129.603 19.73 130.328 19.555 131.148 19.555C131.938 19.555 132.643 19.725 133.263 20.065C133.893 20.405 134.378 20.89 134.718 21.52C135.068 22.14 135.243 22.855 135.243 23.665ZM133.068 23.065C133.058 22.525 132.863 22.095 132.483 21.775C132.103 21.445 131.638 21.28 131.088 21.28C130.568 21.28 130.128 21.44 129.768 21.76C129.418 22.07 129.203 22.505 129.123 23.065H133.068ZM138.876 20.98C139.146 20.54 139.496 20.195 139.926 19.945C140.366 19.695 140.866 19.57 141.426 19.57V21.775H140.871C140.211 21.775 139.711 21.93 139.371 22.24C139.041 22.55 138.876 23.09 138.876 23.86V28H136.776V19.69H138.876V20.98ZM151.094 19.57C151.724 19.57 152.284 19.71 152.774 19.99C153.264 20.26 153.644 20.665 153.914 21.205C154.194 21.735 154.334 22.375 154.334 23.125V28H152.234V23.41C152.234 22.75 152.069 22.245 151.739 21.895C151.409 21.535 150.959 21.355 150.389 21.355C149.809 21.355 149.349 21.535 149.009 21.895C148.679 22.245 148.514 22.75 148.514 23.41V28H146.414V16.9H148.514V20.725C148.784 20.365 149.144 20.085 149.594 19.885C150.044 19.675 150.544 19.57 151.094 19.57ZM157.396 18.7C157.026 18.7 156.716 18.585 156.466 18.355C156.226 18.115 156.106 17.82 156.106 17.47C156.106 17.12 156.226 16.83 156.466 16.6C156.716 16.36 157.026 16.24 157.396 16.24C157.766 16.24 158.071 16.36 158.311 16.6C158.561 16.83 158.686 17.12 158.686 17.47C158.686 17.82 158.561 18.115 158.311 18.355C158.071 18.585 157.766 18.7 157.396 18.7ZM158.431 19.69V28H156.331V19.69H158.431ZM168.231 23.665C168.231 23.965 168.211 24.235 168.171 24.475H162.096C162.146 25.075 162.356 25.545 162.726 25.885C163.096 26.225 163.551 26.395 164.091 26.395C164.871 26.395 165.426 26.06 165.756 25.39H168.021C167.781 26.19 167.321 26.85 166.641 27.37C165.961 27.88 165.126 28.135 164.136 28.135C163.336 28.135 162.616 27.96 161.976 27.61C161.346 27.25 160.851 26.745 160.491 26.095C160.141 25.445 159.966 24.695 159.966 23.845C159.966 22.985 160.141 22.23 160.491 21.58C160.841 20.93 161.331 20.43 161.961 20.08C162.591 19.73 163.316 19.555 164.136 19.555C164.926 19.555 165.631 19.725 166.251 20.065C166.881 20.405 167.366 20.89 167.706 21.52C168.056 22.14 168.231 22.855 168.231 23.665ZM166.056 23.065C166.046 22.525 165.851 22.095 165.471 21.775C165.091 21.445 164.626 21.28 164.076 21.28C163.556 21.28 163.116 21.44 162.756 21.76C162.406 22.07 162.191 22.505 162.111 23.065H166.056ZM171.864 20.98C172.134 20.54 172.484 20.195 172.914 19.945C173.354 19.695 173.854 19.57 174.414 19.57V21.775H173.859C173.199 21.775 172.699 21.93 172.359 22.24C172.029 22.55 171.864 23.09 171.864 23.86V28H169.764V19.69H171.864V20.98ZM184.323 28L181.503 24.46V28H179.403V16.9H181.503V23.215L184.293 19.69H187.023L183.363 23.86L187.053 28H184.323ZM191.852 28.135C191.052 28.135 190.332 27.96 189.692 27.61C189.052 27.25 188.547 26.745 188.177 26.095C187.817 25.445 187.637 24.695 187.637 23.845C187.637 22.995 187.822 22.245 188.192 21.595C188.572 20.945 189.087 20.445 189.737 20.095C190.387 19.735 191.112 19.555 191.912 19.555C192.712 19.555 193.437 19.735 194.087 20.095C194.737 20.445 195.247 20.945 195.617 21.595C195.997 22.245 196.187 22.995 196.187 23.845C196.187 24.695 195.992 25.445 195.602 26.095C195.222 26.745 194.702 27.25 194.042 27.61C193.392 27.96 192.662 28.135 191.852 28.135ZM191.852 26.305C192.232 26.305 192.587 26.215 192.917 26.035C193.257 25.845 193.527 25.565 193.727 25.195C193.927 24.825 194.027 24.375 194.027 23.845C194.027 23.055 193.817 22.45 193.397 22.03C192.987 21.6 192.482 21.385 191.882 21.385C191.282 21.385 190.777 21.6 190.367 22.03C189.967 22.45 189.767 23.055 189.767 23.845C189.767 24.635 189.962 25.245 190.352 25.675C190.752 26.095 191.252 26.305 191.852 26.305ZM200.908 28.135C200.228 28.135 199.618 28.015 199.078 27.775C198.538 27.525 198.108 27.19 197.788 26.77C197.478 26.35 197.308 25.885 197.278 25.375H199.393C199.433 25.695 199.588 25.96 199.858 26.17C200.138 26.38 200.483 26.485 200.893 26.485C201.293 26.485 201.603 26.405 201.823 26.245C202.053 26.085 202.168 25.88 202.168 25.63C202.168 25.36 202.028 25.16 201.748 25.03C201.478 24.89 201.043 24.74 200.443 24.58C199.823 24.43 199.313 24.275 198.913 24.115C198.523 23.955 198.183 23.71 197.893 23.38C197.613 23.05 197.473 22.605 197.473 22.045C197.473 21.585 197.603 21.165 197.863 20.785C198.133 20.405 198.513 20.105 199.003 19.885C199.503 19.665 200.088 19.555 200.758 19.555C201.748 19.555 202.538 19.805 203.128 20.305C203.718 20.795 204.043 21.46 204.103 22.3H202.093C202.063 21.97 201.923 21.71 201.673 21.52C201.433 21.32 201.108 21.22 200.698 21.22C200.318 21.22 200.023 21.29 199.813 21.43C199.613 21.57 199.513 21.765 199.513 22.015C199.513 22.295 199.653 22.51 199.933 22.66C200.213 22.8 200.648 22.945 201.238 23.095C201.838 23.245 202.333 23.4 202.723 23.56C203.113 23.72 203.448 23.97 203.728 24.31C204.018 24.64 204.168 25.08 204.178 25.63C204.178 26.11 204.043 26.54 203.773 26.92C203.513 27.3 203.133 27.6 202.633 27.82C202.143 28.03 201.568 28.135 200.908 28.135ZM208.347 21.415V25.435C208.347 25.715 208.412 25.92 208.542 26.05C208.682 26.17 208.912 26.23 209.232 26.23H210.207V28H208.887C207.117 28 206.232 27.14 206.232 25.42V21.415H205.242V19.69H206.232V17.635H208.347V19.69H210.207V21.415H208.347ZM219.442 23.665C219.442 23.965 219.422 24.235 219.382 24.475H213.307C213.357 25.075 213.567 25.545 213.937 25.885C214.307 26.225 214.762 26.395 215.302 26.395C216.082 26.395 216.637 26.06 216.967 25.39H219.232C218.992 26.19 218.532 26.85 217.852 27.37C217.172 27.88 216.337 28.135 215.347 28.135C214.547 28.135 213.827 27.96 213.187 27.61C212.557 27.25 212.062 26.745 211.702 26.095C211.352 25.445 211.177 24.695 211.177 23.845C211.177 22.985 211.352 22.23 211.702 21.58C212.052 20.93 212.542 20.43 213.172 20.08C213.802 19.73 214.527 19.555 215.347 19.555C216.137 19.555 216.842 19.725 217.462 20.065C218.092 20.405 218.577 20.89 218.917 21.52C219.267 22.14 219.442 22.855 219.442 23.665ZM217.267 23.065C217.257 22.525 217.062 22.095 216.682 21.775C216.302 21.445 215.837 21.28 215.287 21.28C214.767 21.28 214.327 21.44 213.967 21.76C213.617 22.07 213.402 22.505 213.322 23.065H217.267ZM225.58 19.57C226.57 19.57 227.37 19.885 227.98 20.515C228.59 21.135 228.895 22.005 228.895 23.125V28H226.795V23.41C226.795 22.75 226.63 22.245 226.3 21.895C225.97 21.535 225.52 21.355 224.95 21.355C224.37 21.355 223.91 21.535 223.57 21.895C223.24 22.245 223.075 22.75 223.075 23.41V28H220.975V19.69H223.075V20.725C223.355 20.365 223.71 20.085 224.14 19.885C224.58 19.675 225.06 19.57 225.58 19.57ZM232.992 16.9V28H230.892V16.9H232.992ZM238.757 28.135C237.957 28.135 237.237 27.96 236.597 27.61C235.957 27.25 235.452 26.745 235.082 26.095C234.722 25.445 234.542 24.695 234.542 23.845C234.542 22.995 234.727 22.245 235.097 21.595C235.477 20.945 235.992 20.445 236.642 20.095C237.292 19.735 238.017 19.555 238.817 19.555C239.617 19.555 240.342 19.735 240.992 20.095C241.642 20.445 242.152 20.945 242.522 21.595C242.902 22.245 243.092 22.995 243.092 23.845C243.092 24.695 242.897 25.445 242.507 26.095C242.127 26.745 241.607 27.25 240.947 27.61C240.297 27.96 239.567 28.135 238.757 28.135ZM238.757 26.305C239.137 26.305 239.492 26.215 239.822 26.035C240.162 25.845 240.432 25.565 240.632 25.195C240.832 24.825 240.932 24.375 240.932 23.845C240.932 23.055 240.722 22.45 240.302 22.03C239.892 21.6 239.387 21.385 238.787 21.385C238.187 21.385 237.682 21.6 237.272 22.03C236.872 22.45 236.672 23.055 236.672 23.845C236.672 24.635 236.867 25.245 237.257 25.675C237.657 26.095 238.157 26.305 238.757 26.305ZM247.812 28.135C247.132 28.135 246.522 28.015 245.982 27.775C245.442 27.525 245.012 27.19 244.692 26.77C244.382 26.35 244.212 25.885 244.182 25.375H246.297C246.337 25.695 246.492 25.96 246.762 26.17C247.042 26.38 247.387 26.485 247.797 26.485C248.197 26.485 248.507 26.405 248.727 26.245C248.957 26.085 249.072 25.88 249.072 25.63C249.072 25.36 248.932 25.16 248.652 25.03C248.382 24.89 247.947 24.74 247.347 24.58C246.727 24.43 246.217 24.275 245.817 24.115C245.427 23.955 245.087 23.71 244.797 23.38C244.517 23.05 244.377 22.605 244.377 22.045C244.377 21.585 244.507 21.165 244.767 20.785C245.037 20.405 245.417 20.105 245.907 19.885C246.407 19.665 246.992 19.555 247.662 19.555C248.652 19.555 249.442 19.805 250.032 20.305C250.622 20.795 250.947 21.46 251.007 22.3H248.997C248.967 21.97 248.827 21.71 248.577 21.52C248.337 21.32 248.012 21.22 247.602 21.22C247.222 21.22 246.927 21.29 246.717 21.43C246.517 21.57 246.417 21.765 246.417 22.015C246.417 22.295 246.557 22.51 246.837 22.66C247.117 22.8 247.552 22.945 248.142 23.095C248.742 23.245 249.237 23.4 249.627 23.56C250.017 23.72 250.352 23.97 250.632 24.31C250.922 24.64 251.072 25.08 251.082 25.63C251.082 26.11 250.947 26.54 250.677 26.92C250.417 27.3 250.037 27.6 249.537 27.82C249.047 28.03 248.472 28.135 247.812 28.135ZM255.84 23.815C255.84 22.975 256.005 22.23 256.335 21.58C256.675 20.93 257.135 20.43 257.715 20.08C258.295 19.73 258.94 19.555 259.65 19.555C260.19 19.555 260.705 19.675 261.195 19.915C261.685 20.145 262.075 20.455 262.365 20.845V16.9H264.495V28H262.365V26.77C262.105 27.18 261.74 27.51 261.27 27.76C260.8 28.01 260.255 28.135 259.635 28.135C258.935 28.135 258.295 27.955 257.715 27.595C257.135 27.235 256.675 26.73 256.335 26.08C256.005 25.42 255.84 24.665 255.84 23.815ZM262.38 23.845C262.38 23.335 262.28 22.9 262.08 22.54C261.88 22.17 261.61 21.89 261.27 21.7C260.93 21.5 260.565 21.4 260.175 21.4C259.785 21.4 259.425 21.495 259.095 21.685C258.765 21.875 258.495 22.155 258.285 22.525C258.085 22.885 257.985 23.315 257.985 23.815C257.985 24.315 258.085 24.755 258.285 25.135C258.495 25.505 258.765 25.79 259.095 25.99C259.435 26.19 259.795 26.29 260.175 26.29C260.565 26.29 260.93 26.195 261.27 26.005C261.61 25.805 261.88 25.525 262.08 25.165C262.28 24.795 262.38 24.355 262.38 23.845ZM270.236 28.135C269.436 28.135 268.716 27.96 268.076 27.61C267.436 27.25 266.931 26.745 266.561 26.095C266.201 25.445 266.021 24.695 266.021 23.845C266.021 22.995 266.206 22.245 266.576 21.595C266.956 20.945 267.471 20.445 268.121 20.095C268.771 19.735 269.496 19.555 270.296 19.555C271.096 19.555 271.821 19.735 272.471 20.095C273.121 20.445 273.631 20.945 274.001 21.595C274.381 22.245 274.571 22.995 274.571 23.845C274.571 24.695 274.376 25.445 273.986 26.095C273.606 26.745 273.086 27.25 272.426 27.61C271.776 27.96 271.046 28.135 270.236 28.135ZM270.236 26.305C270.616 26.305 270.971 26.215 271.301 26.035C271.641 25.845 271.911 25.565 272.111 25.195C272.311 24.825 272.411 24.375 272.411 23.845C272.411 23.055 272.201 22.45 271.781 22.03C271.371 21.6 270.866 21.385 270.266 21.385C269.666 21.385 269.161 21.6 268.751 22.03C268.351 22.45 268.151 23.055 268.151 23.845C268.151 24.635 268.346 25.245 268.736 25.675C269.136 26.095 269.636 26.305 270.236 26.305ZM287.632 19.69L285.202 28H282.937L281.422 22.195L279.907 28H277.627L275.182 19.69H277.312L278.782 26.02L280.372 19.69H282.592L284.152 26.005L285.622 19.69H287.632ZM293.373 19.57C294.363 19.57 295.163 19.885 295.773 20.515C296.383 21.135 296.688 22.005 296.688 23.125V28H294.588V23.41C294.588 22.75 294.423 22.245 294.093 21.895C293.763 21.535 293.313 21.355 292.743 21.355C292.163 21.355 291.703 21.535 291.363 21.895C291.033 22.245 290.868 22.75 290.868 23.41V28H288.768V19.69H290.868V20.725C291.148 20.365 291.503 20.085 291.933 19.885C292.373 19.675 292.853 19.57 293.373 19.57ZM300.785 16.9V28H298.685V16.9H300.785ZM306.55 28.135C305.75 28.135 305.03 27.96 304.39 27.61C303.75 27.25 303.245 26.745 302.875 26.095C302.515 25.445 302.335 24.695 302.335 23.845C302.335 22.995 302.52 22.245 302.89 21.595C303.27 20.945 303.785 20.445 304.435 20.095C305.085 19.735 305.81 19.555 306.61 19.555C307.41 19.555 308.135 19.735 308.785 20.095C309.435 20.445 309.945 20.945 310.315 21.595C310.695 22.245 310.885 22.995 310.885 23.845C310.885 24.695 310.69 25.445 310.3 26.095C309.92 26.745 309.4 27.25 308.74 27.61C308.09 27.96 307.36 28.135 306.55 28.135ZM306.55 26.305C306.93 26.305 307.285 26.215 307.615 26.035C307.955 25.845 308.225 25.565 308.425 25.195C308.625 24.825 308.725 24.375 308.725 23.845C308.725 23.055 308.515 22.45 308.095 22.03C307.685 21.6 307.18 21.385 306.58 21.385C305.98 21.385 305.475 21.6 305.065 22.03C304.665 22.45 304.465 23.055 304.465 23.845C304.465 24.635 304.66 25.245 305.05 25.675C305.45 26.095 305.95 26.305 306.55 26.305ZM311.885 23.815C311.885 22.975 312.05 22.23 312.38 21.58C312.72 20.93 313.175 20.43 313.745 20.08C314.325 19.73 314.97 19.555 315.68 19.555C316.3 19.555 316.84 19.68 317.3 19.93C317.77 20.18 318.145 20.495 318.425 20.875V19.69H320.54V28H318.425V26.785C318.155 27.175 317.78 27.5 317.3 27.76C316.83 28.01 316.285 28.135 315.665 28.135C314.965 28.135 314.325 27.955 313.745 27.595C313.175 27.235 312.72 26.73 312.38 26.08C312.05 25.42 311.885 24.665 311.885 23.815ZM318.425 23.845C318.425 23.335 318.325 22.9 318.125 22.54C317.925 22.17 317.655 21.89 317.315 21.7C316.975 21.5 316.61 21.4 316.22 21.4C315.83 21.4 315.47 21.495 315.14 21.685C314.81 21.875 314.54 22.155 314.33 22.525C314.13 22.885 314.03 23.315 314.03 23.815C314.03 24.315 314.13 24.755 314.33 25.135C314.54 25.505 314.81 25.79 315.14 25.99C315.48 26.19 315.84 26.29 316.22 26.29C316.61 26.29 316.975 26.195 317.315 26.005C317.655 25.805 317.925 25.525 318.125 25.165C318.325 24.795 318.425 24.355 318.425 23.845ZM322.051 23.815C322.051 22.975 322.216 22.23 322.546 21.58C322.886 20.93 323.346 20.43 323.926 20.08C324.506 19.73 325.151 19.555 325.861 19.555C326.401 19.555 326.916 19.675 327.406 19.915C327.896 20.145 328.286 20.455 328.576 20.845V16.9H330.706V28H328.576V26.77C328.316 27.18 327.951 27.51 327.481 27.76C327.011 28.01 326.466 28.135 325.846 28.135C325.146 28.135 324.506 27.955 323.926 27.595C323.346 27.235 322.886 26.73 322.546 26.08C322.216 25.42 322.051 24.665 322.051 23.815ZM328.591 23.845C328.591 23.335 328.491 22.9 328.291 22.54C328.091 22.17 327.821 21.89 327.481 21.7C327.141 21.5 326.776 21.4 326.386 21.4C325.996 21.4 325.636 21.495 325.306 21.685C324.976 21.875 324.706 22.155 324.496 22.525C324.296 22.885 324.196 23.315 324.196 23.815C324.196 24.315 324.296 24.755 324.496 25.135C324.706 25.505 324.976 25.79 325.306 25.99C325.646 26.19 326.006 26.29 326.386 26.29C326.776 26.29 327.141 26.195 327.481 26.005C327.821 25.805 328.091 25.525 328.291 25.165C328.491 24.795 328.591 24.355 328.591 23.845ZM340.482 23.665C340.482 23.965 340.462 24.235 340.422 24.475H334.347C334.397 25.075 334.607 25.545 334.977 25.885C335.347 26.225 335.802 26.395 336.342 26.395C337.122 26.395 337.677 26.06 338.007 25.39H340.272C340.032 26.19 339.572 26.85 338.892 27.37C338.212 27.88 337.377 28.135 336.387 28.135C335.587 28.135 334.867 27.96 334.227 27.61C333.597 27.25 333.102 26.745 332.742 26.095C332.392 25.445 332.217 24.695 332.217 23.845C332.217 22.985 332.392 22.23 332.742 21.58C333.092 20.93 333.582 20.43 334.212 20.08C334.842 19.73 335.567 19.555 336.387 19.555C337.177 19.555 337.882 19.725 338.502 20.065C339.132 20.405 339.617 20.89 339.957 21.52C340.307 22.14 340.482 22.855 340.482 23.665ZM338.307 23.065C338.297 22.525 338.102 22.095 337.722 21.775C337.342 21.445 336.877 21.28 336.327 21.28C335.807 21.28 335.367 21.44 335.007 21.76C334.657 22.07 334.442 22.505 334.362 23.065H338.307ZM346.62 19.57C347.61 19.57 348.41 19.885 349.02 20.515C349.63 21.135 349.935 22.005 349.935 23.125V28H347.835V23.41C347.835 22.75 347.67 22.245 347.34 21.895C347.01 21.535 346.56 21.355 345.99 21.355C345.41 21.355 344.95 21.535 344.61 21.895C344.28 22.245 344.115 22.75 344.115 23.41V28H342.015V19.69H344.115V20.725C344.395 20.365 344.75 20.085 345.18 19.885C345.62 19.675 346.1 19.57 346.62 19.57ZM354.471 29.05H369.471V14.05H354.471V29.05ZM369.471 29.05H384.471V14.05H369.471V29.05ZM384.471 29.05H399.471V14.05H384.471V29.05Z" fill="#292B30"/>
<path opacity="0.8" d="M120.318 35.262V36.66H121.842V37.11H120.318V38.55H122.022V39H119.772V34.812H122.022V35.262H120.318ZM124.45 35.652C124.85 35.652 125.174 35.774 125.422 36.018C125.67 36.258 125.794 36.606 125.794 37.062V39H125.254V37.14C125.254 36.812 125.172 36.562 125.008 36.39C124.844 36.214 124.62 36.126 124.336 36.126C124.048 36.126 123.818 36.216 123.646 36.396C123.478 36.576 123.394 36.838 123.394 37.182V39H122.848V35.712H123.394V36.18C123.502 36.012 123.648 35.882 123.832 35.79C124.02 35.698 124.226 35.652 124.45 35.652ZM126.482 37.344C126.482 37.008 126.55 36.714 126.686 36.462C126.822 36.206 127.008 36.008 127.244 35.868C127.484 35.728 127.752 35.658 128.048 35.658C128.304 35.658 128.542 35.718 128.762 35.838C128.982 35.954 129.15 36.108 129.266 36.3V34.56H129.818V39H129.266V38.382C129.158 38.578 128.998 38.74 128.786 38.868C128.574 38.992 128.326 39.054 128.042 39.054C127.75 39.054 127.484 38.982 127.244 38.838C127.008 38.694 126.822 38.492 126.686 38.232C126.55 37.972 126.482 37.676 126.482 37.344ZM129.266 37.35C129.266 37.102 129.216 36.886 129.116 36.702C129.016 36.518 128.88 36.378 128.708 36.282C128.54 36.182 128.354 36.132 128.15 36.132C127.946 36.132 127.76 36.18 127.592 36.276C127.424 36.372 127.29 36.512 127.19 36.696C127.09 36.88 127.04 37.096 127.04 37.344C127.04 37.596 127.09 37.816 127.19 38.004C127.29 38.188 127.424 38.33 127.592 38.43C127.76 38.526 127.946 38.574 128.15 38.574C128.354 38.574 128.54 38.526 128.708 38.43C128.88 38.33 129.016 38.188 129.116 38.004C129.216 37.816 129.266 37.598 129.266 37.35ZM133.74 37.23C133.74 37.334 133.734 37.444 133.722 37.56H131.094C131.114 37.884 131.224 38.138 131.424 38.322C131.628 38.502 131.874 38.592 132.162 38.592C132.398 38.592 132.594 38.538 132.75 38.43C132.91 38.318 133.022 38.17 133.086 37.986H133.674C133.586 38.302 133.41 38.56 133.146 38.76C132.882 38.956 132.554 39.054 132.162 39.054C131.85 39.054 131.57 38.984 131.322 38.844C131.078 38.704 130.886 38.506 130.746 38.25C130.606 37.99 130.536 37.69 130.536 37.35C130.536 37.01 130.604 36.712 130.74 36.456C130.876 36.2 131.066 36.004 131.31 35.868C131.558 35.728 131.842 35.658 132.162 35.658C132.474 35.658 132.75 35.726 132.99 35.862C133.23 35.998 133.414 36.186 133.542 36.426C133.674 36.662 133.74 36.93 133.74 37.23ZM133.176 37.116C133.176 36.908 133.13 36.73 133.038 36.582C132.946 36.43 132.82 36.316 132.66 36.24C132.504 36.16 132.33 36.12 132.138 36.12C131.862 36.12 131.626 36.208 131.43 36.384C131.238 36.56 131.128 36.804 131.1 37.116H133.176ZM136.741 36.57V37.032H134.347V36.57H136.741ZM138.174 38.55H139.788V39H137.55V38.55L139.146 36.156H137.562V35.712H139.776V36.156L138.174 38.55ZM143.412 35.712V39H142.866V38.514C142.762 38.682 142.616 38.814 142.428 38.91C142.244 39.002 142.04 39.048 141.816 39.048C141.56 39.048 141.33 38.996 141.126 38.892C140.922 38.784 140.76 38.624 140.64 38.412C140.524 38.2 140.466 37.942 140.466 37.638V35.712H141.006V37.566C141.006 37.89 141.088 38.14 141.252 38.316C141.416 38.488 141.64 38.574 141.924 38.574C142.216 38.574 142.446 38.484 142.614 38.304C142.782 38.124 142.866 37.862 142.866 37.518V35.712H143.412ZM146.614 36.57V37.032H144.22V36.57H146.614ZM148.185 35.262V36.66H149.709V37.11H148.185V38.55H149.889V39H147.639V34.812H149.889V35.262H148.185ZM152.317 35.652C152.717 35.652 153.041 35.774 153.289 36.018C153.537 36.258 153.661 36.606 153.661 37.062V39H153.121V37.14C153.121 36.812 153.039 36.562 152.875 36.39C152.711 36.214 152.487 36.126 152.203 36.126C151.915 36.126 151.685 36.216 151.513 36.396C151.345 36.576 151.261 36.838 151.261 37.182V39H150.715V35.712H151.261V36.18C151.369 36.012 151.515 35.882 151.699 35.79C151.887 35.698 152.093 35.652 152.317 35.652ZM154.349 37.344C154.349 37.008 154.417 36.714 154.553 36.462C154.689 36.206 154.875 36.008 155.111 35.868C155.351 35.728 155.619 35.658 155.915 35.658C156.171 35.658 156.409 35.718 156.629 35.838C156.849 35.954 157.017 36.108 157.133 36.3V34.56H157.685V39H157.133V38.382C157.025 38.578 156.865 38.74 156.653 38.868C156.441 38.992 156.193 39.054 155.909 39.054C155.617 39.054 155.351 38.982 155.111 38.838C154.875 38.694 154.689 38.492 154.553 38.232C154.417 37.972 154.349 37.676 154.349 37.344ZM157.133 37.35C157.133 37.102 157.083 36.886 156.983 36.702C156.883 36.518 156.747 36.378 156.575 36.282C156.407 36.182 156.221 36.132 156.017 36.132C155.813 36.132 155.627 36.18 155.459 36.276C155.291 36.372 155.157 36.512 155.057 36.696C154.957 36.88 154.907 37.096 154.907 37.344C154.907 37.596 154.957 37.816 155.057 38.004C155.157 38.188 155.291 38.33 155.459 38.43C155.627 38.526 155.813 38.574 156.017 38.574C156.221 38.574 156.407 38.526 156.575 38.43C156.747 38.33 156.883 38.188 156.983 38.004C157.083 37.816 157.133 37.598 157.133 37.35ZM161.608 37.23C161.608 37.334 161.602 37.444 161.59 37.56H158.962C158.982 37.884 159.092 38.138 159.292 38.322C159.496 38.502 159.742 38.592 160.03 38.592C160.266 38.592 160.462 38.538 160.618 38.43C160.778 38.318 160.89 38.17 160.954 37.986H161.542C161.454 38.302 161.278 38.56 161.014 38.76C160.75 38.956 160.422 39.054 160.03 39.054C159.718 39.054 159.438 38.984 159.19 38.844C158.946 38.704 158.754 38.506 158.614 38.25C158.474 37.99 158.404 37.69 158.404 37.35C158.404 37.01 158.472 36.712 158.608 36.456C158.744 36.2 158.934 36.004 159.178 35.868C159.426 35.728 159.71 35.658 160.03 35.658C160.342 35.658 160.618 35.726 160.858 35.862C161.098 35.998 161.282 36.186 161.41 36.426C161.542 36.662 161.608 36.93 161.608 37.23ZM161.044 37.116C161.044 36.908 160.998 36.73 160.906 36.582C160.814 36.43 160.688 36.316 160.528 36.24C160.372 36.16 160.198 36.12 160.006 36.12C159.73 36.12 159.494 36.208 159.298 36.384C159.106 36.56 158.996 36.804 158.968 37.116H161.044ZM164.608 36.57V37.032H162.214V36.57H164.608ZM166.857 38.496L167.877 35.712H168.459L167.169 39H166.533L165.243 35.712H165.831L166.857 38.496ZM171.996 37.23C171.996 37.334 171.99 37.444 171.978 37.56H169.35C169.37 37.884 169.48 38.138 169.68 38.322C169.884 38.502 170.13 38.592 170.418 38.592C170.654 38.592 170.85 38.538 171.006 38.43C171.166 38.318 171.278 38.17 171.342 37.986H171.93C171.842 38.302 171.666 38.56 171.402 38.76C171.138 38.956 170.81 39.054 170.418 39.054C170.106 39.054 169.826 38.984 169.578 38.844C169.334 38.704 169.142 38.506 169.002 38.25C168.862 37.99 168.792 37.69 168.792 37.35C168.792 37.01 168.86 36.712 168.996 36.456C169.132 36.2 169.322 36.004 169.566 35.868C169.814 35.728 170.098 35.658 170.418 35.658C170.73 35.658 171.006 35.726 171.246 35.862C171.486 35.998 171.67 36.186 171.798 36.426C171.93 36.662 171.996 36.93 171.996 37.23ZM171.432 37.116C171.432 36.908 171.386 36.73 171.294 36.582C171.202 36.43 171.076 36.316 170.916 36.24C170.76 36.16 170.586 36.12 170.394 36.12C170.118 36.12 169.882 36.208 169.686 36.384C169.494 36.56 169.384 36.804 169.356 37.116H171.432ZM173.263 36.246C173.359 36.058 173.495 35.912 173.671 35.808C173.851 35.704 174.069 35.652 174.325 35.652V36.216H174.181C173.569 36.216 173.263 36.548 173.263 37.212V39H172.717V35.712H173.263V36.246ZM176.119 39.054C175.867 39.054 175.641 39.012 175.441 38.928C175.241 38.84 175.083 38.72 174.967 38.568C174.851 38.412 174.787 38.234 174.775 38.034H175.339C175.355 38.198 175.431 38.332 175.567 38.436C175.707 38.54 175.889 38.592 176.113 38.592C176.321 38.592 176.485 38.546 176.605 38.454C176.725 38.362 176.785 38.246 176.785 38.106C176.785 37.962 176.721 37.856 176.593 37.788C176.465 37.716 176.267 37.646 175.999 37.578C175.755 37.514 175.555 37.45 175.399 37.386C175.247 37.318 175.115 37.22 175.003 37.092C174.895 36.96 174.841 36.788 174.841 36.576C174.841 36.408 174.891 36.254 174.991 36.114C175.091 35.974 175.233 35.864 175.417 35.784C175.601 35.7 175.811 35.658 176.047 35.658C176.411 35.658 176.705 35.75 176.929 35.934C177.153 36.118 177.273 36.37 177.289 36.69H176.743C176.731 36.518 176.661 36.38 176.533 36.276C176.409 36.172 176.241 36.12 176.029 36.12C175.833 36.12 175.677 36.162 175.561 36.246C175.445 36.33 175.387 36.44 175.387 36.576C175.387 36.684 175.421 36.774 175.489 36.846C175.561 36.914 175.649 36.97 175.753 37.014C175.861 37.054 176.009 37.1 176.197 37.152C176.433 37.216 176.625 37.28 176.773 37.344C176.921 37.404 177.047 37.496 177.151 37.62C177.259 37.744 177.315 37.906 177.319 38.106C177.319 38.286 177.269 38.448 177.169 38.592C177.069 38.736 176.927 38.85 176.743 38.934C176.563 39.014 176.355 39.054 176.119 39.054ZM177.886 37.35C177.886 37.01 177.954 36.714 178.09 36.462C178.226 36.206 178.414 36.008 178.654 35.868C178.898 35.728 179.176 35.658 179.488 35.658C179.892 35.658 180.224 35.756 180.484 35.952C180.748 36.148 180.922 36.42 181.006 36.768H180.418C180.362 36.568 180.252 36.41 180.088 36.294C179.928 36.178 179.728 36.12 179.488 36.12C179.176 36.12 178.924 36.228 178.732 36.444C178.54 36.656 178.444 36.958 178.444 37.35C178.444 37.746 178.54 38.052 178.732 38.268C178.924 38.484 179.176 38.592 179.488 38.592C179.728 38.592 179.928 38.536 180.088 38.424C180.248 38.312 180.358 38.152 180.418 37.944H181.006C180.918 38.28 180.742 38.55 180.478 38.754C180.214 38.954 179.884 39.054 179.488 39.054C179.176 39.054 178.898 38.984 178.654 38.844C178.414 38.704 178.226 38.506 178.09 38.25C177.954 37.994 177.886 37.694 177.886 37.35ZM183.366 35.652C183.614 35.652 183.838 35.706 184.038 35.814C184.238 35.918 184.394 36.076 184.506 36.288C184.622 36.5 184.68 36.758 184.68 37.062V39H184.14V37.14C184.14 36.812 184.058 36.562 183.894 36.39C183.73 36.214 183.506 36.126 183.222 36.126C182.934 36.126 182.704 36.216 182.532 36.396C182.364 36.576 182.28 36.838 182.28 37.182V39H181.734V34.56H182.28V36.18C182.388 36.012 182.536 35.882 182.724 35.79C182.916 35.698 183.13 35.652 183.366 35.652ZM186.118 34.56V39H185.572V34.56H186.118ZM189.965 35.712V39H189.419V38.514C189.315 38.682 189.169 38.814 188.981 38.91C188.797 39.002 188.593 39.048 188.369 39.048C188.113 39.048 187.883 38.996 187.679 38.892C187.475 38.784 187.313 38.624 187.193 38.412C187.077 38.2 187.019 37.942 187.019 37.638V35.712H187.559V37.566C187.559 37.89 187.641 38.14 187.805 38.316C187.969 38.488 188.193 38.574 188.477 38.574C188.769 38.574 188.999 38.484 189.167 38.304C189.335 38.124 189.419 37.862 189.419 37.518V35.712H189.965ZM188.027 35.268C187.939 35.268 187.863 35.238 187.799 35.178C187.739 35.118 187.709 35.044 187.709 34.956C187.709 34.868 187.739 34.794 187.799 34.734C187.863 34.67 187.939 34.638 188.027 34.638C188.111 34.638 188.183 34.67 188.243 34.734C188.307 34.794 188.339 34.868 188.339 34.956C188.339 35.044 188.307 35.118 188.243 35.178C188.183 35.238 188.111 35.268 188.027 35.268ZM188.999 35.268C188.911 35.268 188.837 35.238 188.777 35.178C188.717 35.118 188.687 35.044 188.687 34.956C188.687 34.868 188.717 34.794 188.777 34.734C188.837 34.67 188.911 34.638 188.999 34.638C189.087 34.638 189.161 34.67 189.221 34.734C189.285 34.794 189.317 34.868 189.317 34.956C189.317 35.044 189.285 35.118 189.221 35.178C189.161 35.238 189.087 35.268 188.999 35.268ZM192.051 39.054C191.799 39.054 191.573 39.012 191.373 38.928C191.173 38.84 191.015 38.72 190.899 38.568C190.783 38.412 190.719 38.234 190.707 38.034H191.271C191.287 38.198 191.363 38.332 191.499 38.436C191.639 38.54 191.821 38.592 192.045 38.592C192.253 38.592 192.417 38.546 192.537 38.454C192.657 38.362 192.717 38.246 192.717 38.106C192.717 37.962 192.653 37.856 192.525 37.788C192.397 37.716 192.199 37.646 191.931 37.578C191.687 37.514 191.487 37.45 191.331 37.386C191.179 37.318 191.047 37.22 190.935 37.092C190.827 36.96 190.773 36.788 190.773 36.576C190.773 36.408 190.823 36.254 190.923 36.114C191.023 35.974 191.165 35.864 191.349 35.784C191.533 35.7 191.743 35.658 191.979 35.658C192.343 35.658 192.637 35.75 192.861 35.934C193.085 36.118 193.205 36.37 193.221 36.69H192.675C192.663 36.518 192.593 36.38 192.465 36.276C192.341 36.172 192.173 36.12 191.961 36.12C191.765 36.12 191.609 36.162 191.493 36.246C191.377 36.33 191.319 36.44 191.319 36.576C191.319 36.684 191.353 36.774 191.421 36.846C191.493 36.914 191.581 36.97 191.685 37.014C191.793 37.054 191.941 37.1 192.129 37.152C192.365 37.216 192.557 37.28 192.705 37.344C192.853 37.404 192.979 37.496 193.083 37.62C193.191 37.744 193.247 37.906 193.251 38.106C193.251 38.286 193.201 38.448 193.101 38.592C193.001 38.736 192.859 38.85 192.675 38.934C192.495 39.014 192.287 39.054 192.051 39.054ZM195.186 39.054C194.934 39.054 194.708 39.012 194.508 38.928C194.308 38.84 194.15 38.72 194.034 38.568C193.918 38.412 193.854 38.234 193.842 38.034H194.406C194.422 38.198 194.498 38.332 194.634 38.436C194.774 38.54 194.956 38.592 195.18 38.592C195.388 38.592 195.552 38.546 195.672 38.454C195.792 38.362 195.852 38.246 195.852 38.106C195.852 37.962 195.788 37.856 195.66 37.788C195.532 37.716 195.334 37.646 195.066 37.578C194.822 37.514 194.622 37.45 194.466 37.386C194.314 37.318 194.182 37.22 194.07 37.092C193.962 36.96 193.908 36.788 193.908 36.576C193.908 36.408 193.958 36.254 194.058 36.114C194.158 35.974 194.3 35.864 194.484 35.784C194.668 35.7 194.878 35.658 195.114 35.658C195.478 35.658 195.772 35.75 195.996 35.934C196.22 36.118 196.34 36.37 196.356 36.69H195.81C195.798 36.518 195.728 36.38 195.6 36.276C195.476 36.172 195.308 36.12 195.096 36.12C194.9 36.12 194.744 36.162 194.628 36.246C194.512 36.33 194.454 36.44 194.454 36.576C194.454 36.684 194.488 36.774 194.556 36.846C194.628 36.914 194.716 36.97 194.82 37.014C194.928 37.054 195.076 37.1 195.264 37.152C195.5 37.216 195.692 37.28 195.84 37.344C195.988 37.404 196.114 37.496 196.218 37.62C196.326 37.744 196.382 37.906 196.386 38.106C196.386 38.286 196.336 38.448 196.236 38.592C196.136 38.736 195.994 38.85 195.81 38.934C195.63 39.014 195.422 39.054 195.186 39.054ZM200.156 37.23C200.156 37.334 200.15 37.444 200.138 37.56H197.51C197.53 37.884 197.64 38.138 197.84 38.322C198.044 38.502 198.29 38.592 198.578 38.592C198.814 38.592 199.01 38.538 199.166 38.43C199.326 38.318 199.438 38.17 199.502 37.986H200.09C200.002 38.302 199.826 38.56 199.562 38.76C199.298 38.956 198.97 39.054 198.578 39.054C198.266 39.054 197.986 38.984 197.738 38.844C197.494 38.704 197.302 38.506 197.162 38.25C197.022 37.99 196.952 37.69 196.952 37.35C196.952 37.01 197.02 36.712 197.156 36.456C197.292 36.2 197.482 36.004 197.726 35.868C197.974 35.728 198.258 35.658 198.578 35.658C198.89 35.658 199.166 35.726 199.406 35.862C199.646 35.998 199.83 36.186 199.958 36.426C200.09 36.662 200.156 36.93 200.156 37.23ZM199.592 37.116C199.592 36.908 199.546 36.73 199.454 36.582C199.362 36.43 199.236 36.316 199.076 36.24C198.92 36.16 198.746 36.12 198.554 36.12C198.278 36.12 198.042 36.208 197.846 36.384C197.654 36.56 197.544 36.804 197.516 37.116H199.592ZM201.423 34.56V39H200.877V34.56H201.423ZM203.02 36.162V38.1C203.02 38.26 203.054 38.374 203.122 38.442C203.19 38.506 203.308 38.538 203.476 38.538H203.878V39H203.386C203.082 39 202.854 38.93 202.702 38.79C202.55 38.65 202.474 38.42 202.474 38.1V36.162H202.048V35.712H202.474V34.884H203.02V35.712H203.878V36.162H203.02ZM205.935 37.344C205.935 37.008 206.003 36.714 206.139 36.462C206.275 36.206 206.461 36.008 206.697 35.868C206.937 35.728 207.205 35.658 207.501 35.658C207.757 35.658 207.995 35.718 208.215 35.838C208.435 35.954 208.603 36.108 208.719 36.3V34.56H209.271V39H208.719V38.382C208.611 38.578 208.451 38.74 208.239 38.868C208.027 38.992 207.779 39.054 207.495 39.054C207.203 39.054 206.937 38.982 206.697 38.838C206.461 38.694 206.275 38.492 206.139 38.232C206.003 37.972 205.935 37.676 205.935 37.344ZM208.719 37.35C208.719 37.102 208.669 36.886 208.569 36.702C208.469 36.518 208.333 36.378 208.161 36.282C207.993 36.182 207.807 36.132 207.603 36.132C207.399 36.132 207.213 36.18 207.045 36.276C206.877 36.372 206.743 36.512 206.643 36.696C206.543 36.88 206.493 37.096 206.493 37.344C206.493 37.596 206.543 37.816 206.643 38.004C206.743 38.188 206.877 38.33 207.045 38.43C207.213 38.526 207.399 38.574 207.603 38.574C207.807 38.574 207.993 38.526 208.161 38.43C208.333 38.33 208.469 38.188 208.569 38.004C208.669 37.816 208.719 37.598 208.719 37.35ZM211.627 39.054C211.319 39.054 211.039 38.984 210.787 38.844C210.539 38.704 210.343 38.506 210.199 38.25C210.059 37.99 209.989 37.69 209.989 37.35C209.989 37.014 210.061 36.718 210.205 36.462C210.353 36.202 210.553 36.004 210.805 35.868C211.057 35.728 211.339 35.658 211.651 35.658C211.963 35.658 212.245 35.728 212.497 35.868C212.749 36.004 212.947 36.2 213.091 36.456C213.239 36.712 213.313 37.01 213.313 37.35C213.313 37.69 213.237 37.99 213.085 38.25C212.937 38.506 212.735 38.704 212.479 38.844C212.223 38.984 211.939 39.054 211.627 39.054ZM211.627 38.574C211.823 38.574 212.007 38.528 212.179 38.436C212.351 38.344 212.489 38.206 212.593 38.022C212.701 37.838 212.755 37.614 212.755 37.35C212.755 37.086 212.703 36.862 212.599 36.678C212.495 36.494 212.359 36.358 212.191 36.27C212.023 36.178 211.841 36.132 211.645 36.132C211.445 36.132 211.261 36.178 211.093 36.27C210.929 36.358 210.797 36.494 210.697 36.678C210.597 36.862 210.547 37.086 210.547 37.35C210.547 37.618 210.595 37.844 210.691 38.028C210.791 38.212 210.923 38.35 211.087 38.442C211.251 38.53 211.431 38.574 211.627 38.574ZM218.411 35.712L217.385 39H216.821L216.029 36.39L215.237 39H214.673L213.641 35.712H214.199L214.955 38.472L215.771 35.712H216.329L217.127 38.478L217.871 35.712H218.411ZM220.555 35.652C220.955 35.652 221.279 35.774 221.527 36.018C221.775 36.258 221.899 36.606 221.899 37.062V39H221.359V37.14C221.359 36.812 221.277 36.562 221.113 36.39C220.949 36.214 220.725 36.126 220.441 36.126C220.153 36.126 219.923 36.216 219.751 36.396C219.583 36.576 219.499 36.838 219.499 37.182V39H218.953V35.712H219.499V36.18C219.607 36.012 219.753 35.882 219.937 35.79C220.125 35.698 220.331 35.652 220.555 35.652ZM223.337 34.56V39H222.791V34.56H223.337ZM225.702 39.054C225.394 39.054 225.114 38.984 224.862 38.844C224.614 38.704 224.418 38.506 224.274 38.25C224.134 37.99 224.064 37.69 224.064 37.35C224.064 37.014 224.136 36.718 224.28 36.462C224.428 36.202 224.628 36.004 224.88 35.868C225.132 35.728 225.414 35.658 225.726 35.658C226.038 35.658 226.32 35.728 226.572 35.868C226.824 36.004 227.022 36.2 227.166 36.456C227.314 36.712 227.388 37.01 227.388 37.35C227.388 37.69 227.312 37.99 227.16 38.25C227.012 38.506 226.81 38.704 226.554 38.844C226.298 38.984 226.014 39.054 225.702 39.054ZM225.702 38.574C225.898 38.574 226.082 38.528 226.254 38.436C226.426 38.344 226.564 38.206 226.668 38.022C226.776 37.838 226.83 37.614 226.83 37.35C226.83 37.086 226.778 36.862 226.674 36.678C226.57 36.494 226.434 36.358 226.266 36.27C226.098 36.178 225.916 36.132 225.72 36.132C225.52 36.132 225.336 36.178 225.168 36.27C225.004 36.358 224.872 36.494 224.772 36.678C224.672 36.862 224.622 37.086 224.622 37.35C224.622 37.618 224.67 37.844 224.766 38.028C224.866 38.212 224.998 38.35 225.162 38.442C225.326 38.53 225.506 38.574 225.702 38.574ZM227.902 37.344C227.902 37.008 227.97 36.714 228.106 36.462C228.242 36.206 228.428 36.008 228.664 35.868C228.904 35.728 229.17 35.658 229.462 35.658C229.75 35.658 230 35.72 230.212 35.844C230.424 35.968 230.582 36.124 230.686 36.312V35.712H231.238V39H230.686V38.388C230.578 38.58 230.416 38.74 230.2 38.868C229.988 38.992 229.74 39.054 229.456 39.054C229.164 39.054 228.9 38.982 228.664 38.838C228.428 38.694 228.242 38.492 228.106 38.232C227.97 37.972 227.902 37.676 227.902 37.344ZM230.686 37.35C230.686 37.102 230.636 36.886 230.536 36.702C230.436 36.518 230.3 36.378 230.128 36.282C229.96 36.182 229.774 36.132 229.57 36.132C229.366 36.132 229.18 36.18 229.012 36.276C228.844 36.372 228.71 36.512 228.61 36.696C228.51 36.88 228.46 37.096 228.46 37.344C228.46 37.596 228.51 37.816 228.61 38.004C228.71 38.188 228.844 38.33 229.012 38.43C229.18 38.526 229.366 38.574 229.57 38.574C229.774 38.574 229.96 38.526 230.128 38.43C230.3 38.33 230.436 38.188 230.536 38.004C230.636 37.816 230.686 37.598 230.686 37.35ZM231.956 37.344C231.956 37.008 232.024 36.714 232.16 36.462C232.296 36.206 232.482 36.008 232.718 35.868C232.958 35.728 233.226 35.658 233.522 35.658C233.778 35.658 234.016 35.718 234.236 35.838C234.456 35.954 234.624 36.108 234.74 36.3V34.56H235.292V39H234.74V38.382C234.632 38.578 234.472 38.74 234.26 38.868C234.048 38.992 233.8 39.054 233.516 39.054C233.224 39.054 232.958 38.982 232.718 38.838C232.482 38.694 232.296 38.492 232.16 38.232C232.024 37.972 231.956 37.676 231.956 37.344ZM234.74 37.35C234.74 37.102 234.69 36.886 234.59 36.702C234.49 36.518 234.354 36.378 234.182 36.282C234.014 36.182 233.828 36.132 233.624 36.132C233.42 36.132 233.234 36.18 233.066 36.276C232.898 36.372 232.764 36.512 232.664 36.696C232.564 36.88 232.514 37.096 232.514 37.344C232.514 37.596 232.564 37.816 232.664 38.004C232.764 38.188 232.898 38.33 233.066 38.43C233.234 38.526 233.42 38.574 233.624 38.574C233.828 38.574 234.014 38.526 234.182 38.43C234.354 38.33 234.49 38.188 234.59 38.004C234.69 37.816 234.74 37.598 234.74 37.35ZM239.215 37.23C239.215 37.334 239.209 37.444 239.197 37.56H236.569C236.589 37.884 236.699 38.138 236.899 38.322C237.103 38.502 237.349 38.592 237.637 38.592C237.873 38.592 238.069 38.538 238.225 38.43C238.385 38.318 238.497 38.17 238.561 37.986H239.149C239.061 38.302 238.885 38.56 238.621 38.76C238.357 38.956 238.029 39.054 237.637 39.054C237.325 39.054 237.045 38.984 236.797 38.844C236.553 38.704 236.361 38.506 236.221 38.25C236.081 37.99 236.011 37.69 236.011 37.35C236.011 37.01 236.079 36.712 236.215 36.456C236.351 36.2 236.541 36.004 236.785 35.868C237.033 35.728 237.317 35.658 237.637 35.658C237.949 35.658 238.225 35.726 238.465 35.862C238.705 35.998 238.889 36.186 239.017 36.426C239.149 36.662 239.215 36.93 239.215 37.23ZM238.651 37.116C238.651 36.908 238.605 36.73 238.513 36.582C238.421 36.43 238.295 36.316 238.135 36.24C237.979 36.16 237.805 36.12 237.613 36.12C237.337 36.12 237.101 36.208 236.905 36.384C236.713 36.56 236.603 36.804 236.575 37.116H238.651ZM241.538 35.652C241.938 35.652 242.262 35.774 242.51 36.018C242.758 36.258 242.882 36.606 242.882 37.062V39H242.342V37.14C242.342 36.812 242.26 36.562 242.096 36.39C241.932 36.214 241.708 36.126 241.424 36.126C241.136 36.126 240.906 36.216 240.734 36.396C240.566 36.576 240.482 36.838 240.482 37.182V39H239.936V35.712H240.482V36.18C240.59 36.012 240.736 35.882 240.92 35.79C241.108 35.698 241.314 35.652 241.538 35.652ZM245.169 37.344C245.169 37.008 245.237 36.714 245.373 36.462C245.509 36.206 245.695 36.008 245.931 35.868C246.171 35.728 246.437 35.658 246.729 35.658C247.017 35.658 247.267 35.72 247.479 35.844C247.691 35.968 247.849 36.124 247.953 36.312V35.712H248.505V39H247.953V38.388C247.845 38.58 247.683 38.74 247.467 38.868C247.255 38.992 247.007 39.054 246.723 39.054C246.431 39.054 246.167 38.982 245.931 38.838C245.695 38.694 245.509 38.492 245.373 38.232C245.237 37.972 245.169 37.676 245.169 37.344ZM247.953 37.35C247.953 37.102 247.903 36.886 247.803 36.702C247.703 36.518 247.567 36.378 247.395 36.282C247.227 36.182 247.041 36.132 246.837 36.132C246.633 36.132 246.447 36.18 246.279 36.276C246.111 36.372 245.977 36.512 245.877 36.696C245.777 36.88 245.727 37.096 245.727 37.344C245.727 37.596 245.777 37.816 245.877 38.004C245.977 38.188 246.111 38.33 246.279 38.43C246.447 38.526 246.633 38.574 246.837 38.574C247.041 38.574 247.227 38.526 247.395 38.43C247.567 38.33 247.703 38.188 247.803 38.004C247.903 37.816 247.953 37.598 247.953 37.35ZM252.344 35.712V39H251.798V38.514C251.694 38.682 251.548 38.814 251.36 38.91C251.176 39.002 250.972 39.048 250.748 39.048C250.492 39.048 250.262 38.996 250.058 38.892C249.854 38.784 249.692 38.624 249.572 38.412C249.456 38.2 249.398 37.942 249.398 37.638V35.712H249.938V37.566C249.938 37.89 250.02 38.14 250.184 38.316C250.348 38.488 250.572 38.574 250.856 38.574C251.148 38.574 251.378 38.484 251.546 38.304C251.714 38.124 251.798 37.862 251.798 37.518V35.712H252.344ZM254.604 36.162H253.914V39H253.368V36.162H252.942V35.712H253.368V35.478C253.368 35.11 253.462 34.842 253.65 34.674C253.842 34.502 254.148 34.416 254.568 34.416V34.872C254.328 34.872 254.158 34.92 254.058 35.016C253.962 35.108 253.914 35.262 253.914 35.478V35.712H254.604V36.162ZM259.636 36.042C259.636 36.39 259.516 36.68 259.276 36.912C259.04 37.14 258.678 37.254 258.19 37.254H257.386V39H256.84V34.818H258.19C258.662 34.818 259.02 34.932 259.264 35.16C259.512 35.388 259.636 35.682 259.636 36.042ZM258.19 36.804C258.494 36.804 258.718 36.738 258.862 36.606C259.006 36.474 259.078 36.286 259.078 36.042C259.078 35.526 258.782 35.268 258.19 35.268H257.386V36.804H258.19ZM260.861 36.246C260.957 36.058 261.093 35.912 261.269 35.808C261.449 35.704 261.667 35.652 261.923 35.652V36.216H261.779C261.167 36.216 260.861 36.548 260.861 37.212V39H260.315V35.712H260.861V36.246ZM263.987 39.054C263.679 39.054 263.399 38.984 263.147 38.844C262.899 38.704 262.703 38.506 262.559 38.25C262.419 37.99 262.349 37.69 262.349 37.35C262.349 37.014 262.421 36.718 262.565 36.462C262.713 36.202 262.913 36.004 263.165 35.868C263.417 35.728 263.699 35.658 264.011 35.658C264.323 35.658 264.605 35.728 264.857 35.868C265.109 36.004 265.307 36.2 265.451 36.456C265.599 36.712 265.673 37.01 265.673 37.35C265.673 37.69 265.597 37.99 265.445 38.25C265.297 38.506 265.095 38.704 264.839 38.844C264.583 38.984 264.299 39.054 263.987 39.054ZM263.987 38.574C264.183 38.574 264.367 38.528 264.539 38.436C264.711 38.344 264.849 38.206 264.953 38.022C265.061 37.838 265.115 37.614 265.115 37.35C265.115 37.086 265.063 36.862 264.959 36.678C264.855 36.494 264.719 36.358 264.551 36.27C264.383 36.178 264.201 36.132 264.005 36.132C263.805 36.132 263.621 36.178 263.453 36.27C263.289 36.358 263.157 36.494 263.057 36.678C262.957 36.862 262.907 37.086 262.907 37.35C262.907 37.618 262.955 37.844 263.051 38.028C263.151 38.212 263.283 38.35 263.447 38.442C263.611 38.53 263.791 38.574 263.987 38.574ZM267.057 36.162V38.1C267.057 38.26 267.091 38.374 267.159 38.442C267.227 38.506 267.345 38.538 267.513 38.538H267.915V39H267.423C267.119 39 266.891 38.93 266.739 38.79C266.587 38.65 266.511 38.42 266.511 38.1V36.162H266.085V35.712H266.511V34.884H267.057V35.712H267.915V36.162H267.057ZM270.01 39.054C269.702 39.054 269.422 38.984 269.17 38.844C268.922 38.704 268.726 38.506 268.582 38.25C268.442 37.99 268.372 37.69 268.372 37.35C268.372 37.014 268.444 36.718 268.588 36.462C268.736 36.202 268.936 36.004 269.188 35.868C269.44 35.728 269.722 35.658 270.034 35.658C270.346 35.658 270.628 35.728 270.88 35.868C271.132 36.004 271.33 36.2 271.474 36.456C271.622 36.712 271.696 37.01 271.696 37.35C271.696 37.69 271.62 37.99 271.468 38.25C271.32 38.506 271.118 38.704 270.862 38.844C270.606 38.984 270.322 39.054 270.01 39.054ZM270.01 38.574C270.206 38.574 270.39 38.528 270.562 38.436C270.734 38.344 270.872 38.206 270.976 38.022C271.084 37.838 271.138 37.614 271.138 37.35C271.138 37.086 271.086 36.862 270.982 36.678C270.878 36.494 270.742 36.358 270.574 36.27C270.406 36.178 270.224 36.132 270.028 36.132C269.828 36.132 269.644 36.178 269.476 36.27C269.312 36.358 269.18 36.494 269.08 36.678C268.98 36.862 268.93 37.086 268.93 37.35C268.93 37.618 268.978 37.844 269.074 38.028C269.174 38.212 269.306 38.35 269.47 38.442C269.634 38.53 269.814 38.574 270.01 38.574ZM274.016 35.652C274.416 35.652 274.74 35.774 274.988 36.018C275.236 36.258 275.36 36.606 275.36 37.062V39H274.82V37.14C274.82 36.812 274.738 36.562 274.574 36.39C274.41 36.214 274.186 36.126 273.902 36.126C273.614 36.126 273.384 36.216 273.212 36.396C273.044 36.576 272.96 36.838 272.96 37.182V39H272.414V35.712H272.96V36.18C273.068 36.012 273.214 35.882 273.398 35.79C273.586 35.698 273.792 35.652 274.016 35.652ZM279.154 34.818C279.61 34.818 280.004 34.904 280.336 35.076C280.672 35.244 280.928 35.486 281.104 35.802C281.284 36.118 281.374 36.49 281.374 36.918C281.374 37.346 281.284 37.718 281.104 38.034C280.928 38.346 280.672 38.586 280.336 38.754C280.004 38.918 279.61 39 279.154 39H277.852V34.818H279.154ZM279.154 38.55C279.694 38.55 280.106 38.408 280.39 38.124C280.674 37.836 280.816 37.434 280.816 36.918C280.816 36.398 280.672 35.992 280.384 35.7C280.1 35.408 279.69 35.262 279.154 35.262H278.398V38.55H279.154ZM282.64 36.246C282.736 36.058 282.872 35.912 283.048 35.808C283.228 35.704 283.446 35.652 283.702 35.652V36.216H283.558C282.946 36.216 282.64 36.548 282.64 37.212V39H282.094V35.712H282.64V36.246ZM284.614 35.178C284.51 35.178 284.422 35.142 284.35 35.07C284.278 34.998 284.242 34.91 284.242 34.806C284.242 34.702 284.278 34.614 284.35 34.542C284.422 34.47 284.51 34.434 284.614 34.434C284.714 34.434 284.798 34.47 284.866 34.542C284.938 34.614 284.974 34.702 284.974 34.806C284.974 34.91 284.938 34.998 284.866 35.07C284.798 35.142 284.714 35.178 284.614 35.178ZM284.878 35.712V39H284.332V35.712H284.878ZM287.033 38.496L288.053 35.712H288.635L287.345 39H286.709L285.419 35.712H286.007L287.033 38.496ZM292.172 37.23C292.172 37.334 292.166 37.444 292.154 37.56H289.526C289.546 37.884 289.656 38.138 289.856 38.322C290.06 38.502 290.306 38.592 290.594 38.592C290.83 38.592 291.026 38.538 291.182 38.43C291.342 38.318 291.454 38.17 291.518 37.986H292.106C292.018 38.302 291.842 38.56 291.578 38.76C291.314 38.956 290.986 39.054 290.594 39.054C290.282 39.054 290.002 38.984 289.754 38.844C289.51 38.704 289.318 38.506 289.178 38.25C289.038 37.99 288.968 37.69 288.968 37.35C288.968 37.01 289.036 36.712 289.172 36.456C289.308 36.2 289.498 36.004 289.742 35.868C289.99 35.728 290.274 35.658 290.594 35.658C290.906 35.658 291.182 35.726 291.422 35.862C291.662 35.998 291.846 36.186 291.974 36.426C292.106 36.662 292.172 36.93 292.172 37.23ZM291.608 37.116C291.608 36.908 291.562 36.73 291.47 36.582C291.378 36.43 291.252 36.316 291.092 36.24C290.936 36.16 290.762 36.12 290.57 36.12C290.294 36.12 290.058 36.208 289.862 36.384C289.67 36.56 289.56 36.804 289.532 37.116H291.608ZM293.067 39.036C292.963 39.036 292.875 39 292.803 38.928C292.731 38.856 292.695 38.768 292.695 38.664C292.695 38.56 292.731 38.472 292.803 38.4C292.875 38.328 292.963 38.292 293.067 38.292C293.167 38.292 293.251 38.328 293.319 38.4C293.391 38.472 293.427 38.56 293.427 38.664C293.427 38.768 293.391 38.856 293.319 38.928C293.251 39 293.167 39.036 293.067 39.036Z" fill="#292B30"/>
</svg>
